<svg width="16" height="16" viewBox="0 0 16 16" fill="none" xmlns="http://www.w3.org/2000/svg">
<path fill-rule="evenodd" clip-rule="evenodd" d="M8.5 3.33333C8.5 3.05719 8.27614 2.83333 8 2.83333C7.72386 2.83333 7.5 3.05719 7.5 3.33333V3.53871C7.28215 3.59336 7.06839 3.67875 6.86485 3.79626C5.05028 4.84391 5.28091 7.53261 7.2474 8.25592L7.50003 8.34884L7.50001 11.4796C7.14341 11.3791 6.8248 11.1447 6.62533 10.7992L6.37495 10.3655C6.23688 10.1264 5.93109 10.0444 5.69194 10.1825C5.45279 10.3206 5.37086 10.6264 5.50893 10.8655L5.7593 11.2992C6.14495 11.9671 6.7951 12.3864 7.5 12.5023L7.5 12.6667C7.5 12.9428 7.72385 13.1667 8 13.1667C8.27614 13.1667 8.5 12.9428 8.5 12.6667L8.5 12.4613C8.71787 12.4067 8.93166 12.3213 9.13521 12.2037C10.9498 11.1561 10.7192 8.46739 8.75267 7.74408L8.50003 7.65116L8.5 4.52035C8.85662 4.62092 9.17525 4.85532 9.37474 5.20083L9.62511 5.6345C9.76318 5.87364 10.069 5.95558 10.3081 5.81751C10.5473 5.67944 10.6292 5.37364 10.4911 5.1345L10.2408 4.70083C9.85511 4.03285 9.20492 3.61356 8.5 3.49767V3.33333ZM7.36485 4.66229C7.40924 4.63666 7.45434 4.61363 7.50001 4.59313L7.50003 7.27999C6.41531 6.80102 6.3137 5.26917 7.36485 4.66229ZM8.50001 11.4069L8.50003 8.72001C9.58476 9.19896 9.68637 10.7308 8.63521 11.3377C8.59081 11.3634 8.54569 11.3864 8.50001 11.4069Z" fill="white"/>
<path fill-rule="evenodd" clip-rule="evenodd" d="M10.9757 1.58249C10.2143 1.49999 9.25452 1.49999 8.03017 1.5H7.96983C6.74548 1.49999 5.78574 1.49999 5.02432 1.58249C4.24729 1.66667 3.61771 1.84155 3.08016 2.2321C2.75473 2.46854 2.46854 2.75473 2.2321 3.08016C1.84155 3.61771 1.66667 4.24729 1.58249 5.02432C1.49999 5.78574 1.49999 6.74548 1.5 7.96983V8.03017C1.49999 9.25452 1.49999 10.2143 1.58249 10.9757C1.66667 11.7527 1.84155 12.3823 2.2321 12.9198C2.46854 13.2453 2.75473 13.5315 3.08016 13.7679C3.61771 14.1585 4.24729 14.3333 5.02432 14.4175C5.78573 14.5 6.74544 14.5 7.96977 14.5H8.03018C9.25451 14.5 10.2143 14.5 10.9757 14.4175C11.7527 14.3333 12.3823 14.1585 12.9198 13.7679C13.2453 13.5315 13.5315 13.2453 13.7679 12.9198C14.1585 12.3823 14.3333 11.7527 14.4175 10.9757C14.5 10.2143 14.5 9.25456 14.5 8.03023V7.96982C14.5 6.74549 14.5 5.78573 14.4175 5.02432C14.3333 4.24729 14.1585 3.61771 13.7679 3.08016C13.5315 2.75473 13.2453 2.46854 12.9198 2.2321C12.3823 1.84155 11.7527 1.66667 10.9757 1.58249ZM3.66794 3.04112C4.00661 2.79506 4.44009 2.65163 5.13203 2.57667C5.83333 2.50069 6.73895 2.5 8 2.5C9.26105 2.5 10.1667 2.50069 10.868 2.57667C11.5599 2.65163 11.9934 2.79506 12.3321 3.04112C12.5726 3.21588 12.7841 3.42741 12.9589 3.66794C13.2049 4.00661 13.3484 4.44009 13.4233 5.13203C13.4993 5.83333 13.5 6.73895 13.5 8C13.5 9.26105 13.4993 10.1667 13.4233 10.868C13.3484 11.5599 13.2049 11.9934 12.9589 12.3321C12.7841 12.5726 12.5726 12.7841 12.3321 12.9589C11.9934 13.2049 11.5599 13.3484 10.868 13.4233C10.1667 13.4993 9.26105 13.5 8 13.5C6.73895 13.5 5.83333 13.4993 5.13203 13.4233C4.44009 13.3484 4.00661 13.2049 3.66794 12.9589C3.42741 12.7841 3.21588 12.5726 3.04112 12.3321C2.79506 11.9934 2.65163 11.5599 2.57667 10.868C2.50069 10.1667 2.5 9.26105 2.5 8C2.5 6.73895 2.50069 5.83333 2.57667 5.13203C2.65163 4.44009 2.79506 4.00661 3.04112 3.66794C3.21588 3.42741 3.42741 3.21588 3.66794 3.04112Z" fill="white"/>
</svg>
