<svg width="16" height="16" viewBox="0 0 16 16" fill="none" xmlns="http://www.w3.org/2000/svg">
<path d="M10.1261 6.5805C10.3213 6.38524 10.3213 6.06866 10.1261 5.87339C9.93081 5.67813 9.61423 5.67813 9.41897 5.87339L5.64773 9.64463C5.45247 9.83989 5.45247 10.1565 5.64773 10.3517C5.84299 10.547 6.15957 10.547 6.35484 10.3517L10.1261 6.5805Z" fill="white"/>
<path fill-rule="evenodd" clip-rule="evenodd" d="M10.3775 1.83593C9.69527 -0.554685 6.3073 -0.554685 5.62505 1.83593C5.40717 2.59937 4.62283 3.05221 3.85273 2.85918C1.44127 2.25471 -0.252714 5.18878 1.47649 6.97494C2.02872 7.54534 2.02872 8.45103 1.47649 9.02143C-0.252715 10.8076 1.44127 13.7417 3.85273 13.1372C4.62283 12.9442 5.40717 13.397 5.62505 14.1604C6.3073 16.5511 9.69527 16.5511 10.3775 14.1604C10.5954 13.397 11.3797 12.9442 12.1498 13.1372C14.5613 13.7417 16.2553 10.8076 14.5261 9.02143C13.9738 8.45102 13.9738 7.54534 14.5261 6.97494C16.2553 5.18878 14.5613 2.25471 12.1498 2.85918C11.3797 3.05221 10.5954 2.59937 10.3775 1.83593ZM6.58665 2.11036C6.99281 0.687171 9.00975 0.687171 9.41591 2.11036C9.78189 3.39276 11.0994 4.15342 12.393 3.82917C13.8286 3.46932 14.837 5.21604 13.8076 6.27938C12.88 7.23752 12.88 8.75885 13.8076 9.71699C14.837 10.7803 13.8286 12.5271 12.393 12.1672C11.0994 11.8429 9.78189 12.6036 9.41591 13.886C9.00975 15.3092 6.99281 15.3092 6.58665 13.886C6.22067 12.6036 4.90317 11.8429 3.60959 12.1672C2.17399 12.5271 1.16552 10.7803 2.19496 9.71699C3.12256 8.75885 3.12256 7.23752 2.19496 6.27938C1.16552 5.21604 2.17399 3.46932 3.60959 3.82917C4.90317 4.15342 6.22067 3.39276 6.58665 2.11036Z" fill="white"/>
<path d="M5.33464 5.99821C5.33464 6.3664 5.63311 6.66488 6.0013 6.66488C6.36949 6.66488 6.66797 6.3664 6.66797 5.99821C6.66797 5.63002 6.36949 5.33154 6.0013 5.33154C5.63311 5.33154 5.33464 5.63002 5.33464 5.99821Z" fill="white"/>
<path d="M9.33464 9.99821C9.33464 10.3664 9.63311 10.6649 10.0013 10.6649C10.3695 10.6649 10.668 10.3664 10.668 9.99821C10.668 9.63002 10.3695 9.33154 10.0013 9.33154C9.63311 9.33154 9.33464 9.63002 9.33464 9.99821Z" fill="white"/>
</svg>
