<svg width="16" height="16" viewBox="0 0 16 16" fill="none" xmlns="http://www.w3.org/2000/svg">
<g clip-path="url(#clip0_609_593)">
<path d="M8.5 11.8798C8.5 11.6036 8.27615 11.3798 8 11.3798C7.72386 11.3798 7.5 11.6036 7.5 11.8798V13.2131C7.5 13.4892 7.72386 13.7131 8 13.7131C8.27615 13.7131 8.5 13.4892 8.5 13.2131V11.8798Z" fill="white"/>
<path fill-rule="evenodd" clip-rule="evenodd" d="M8.14054 0.835909C8.04688 0.832473 7.95313 0.832473 7.85947 0.835909C7.24122 0.858589 6.68451 1.06882 6.0741 1.41878C5.47926 1.75982 4.79443 2.25738 3.92551 2.8887L3.87828 2.92302C3.00935 3.55432 2.32451 4.05188 1.81634 4.51223C1.29488 4.98462 0.922902 5.44912 0.710281 6.0301C0.678072 6.11811 0.649102 6.20727 0.623429 6.29741C0.453948 6.89241 0.481857 7.48684 0.626064 8.17551C0.766596 8.84663 1.02818 9.6517 1.36009 10.6732L1.37813 10.7287C1.71002 11.7502 1.9716 12.5553 2.25239 13.1808C2.54051 13.8227 2.86733 14.32 3.35418 14.7018C3.42793 14.7596 3.50377 14.8147 3.58156 14.867C4.07136 15.1961 4.61622 15.3543 5.27321 15.4339C5.9721 15.5186 6.84591 15.5186 7.96654 15.5186H8.03347C9.1541 15.5186 10.0279 15.5186 10.7268 15.4339C11.3838 15.3543 11.9286 15.1961 12.4184 14.867C12.4962 14.8147 12.5721 14.7596 12.6458 14.7018C13.1327 14.32 13.4595 13.8227 13.7476 13.1808C14.0284 12.5553 14.29 11.7502 14.6219 10.7287L14.6399 10.6732C14.9718 9.65173 15.2334 8.84661 15.3739 8.17551C15.5182 7.48684 15.5461 6.89241 15.3766 6.29741C15.3509 6.20727 15.3219 6.11811 15.2897 6.0301C15.0771 5.44912 14.7051 4.98462 14.1837 4.51223C13.6755 4.05188 12.9907 3.55432 12.1217 2.92301L12.0745 2.88869C11.2056 2.25738 10.5208 1.75982 9.92591 1.41878C9.3155 1.06882 8.75879 0.858589 8.14054 0.835909ZM7.89613 1.83524C7.96536 1.8327 8.03465 1.8327 8.10388 1.83524C8.50083 1.8498 8.89619 1.98111 9.42853 2.28632C9.97104 2.59735 10.6126 3.06264 11.5103 3.71488C12.4081 4.36712 13.0488 4.8335 13.5123 5.25335C13.9671 5.66532 14.2141 6.00075 14.3506 6.37378C14.3744 6.43882 14.3959 6.50473 14.4148 6.57135C14.5237 6.95338 14.5209 7.36997 14.3952 7.97056C14.267 8.58264 14.0227 9.33659 13.6798 10.3919C13.3369 11.4473 13.0914 12.2008 12.8353 12.7713C12.584 13.3311 12.3414 13.6698 12.0288 13.9149C11.9743 13.9576 11.9182 13.9983 11.8607 14.037C11.6637 14.1694 11.4426 14.2677 11.1667 14.3394V11.8798C11.1667 10.1309 9.74891 8.71311 8 8.71311C6.2511 8.71311 4.83334 10.1309 4.83334 11.8798V14.3394C4.55736 14.2677 4.33632 14.1694 4.13929 14.037C4.08179 13.9983 4.02574 13.9576 3.97123 13.9149C3.65864 13.6698 3.41597 13.3311 3.1647 12.7713C2.90862 12.2008 2.66307 11.4473 2.32017 10.3919C1.97726 9.33659 1.733 8.58264 1.60484 7.97056C1.47907 7.36997 1.47636 6.95338 1.58517 6.57135C1.60415 6.50473 1.62556 6.43883 1.64937 6.37378C1.78589 6.00075 2.03295 5.66532 2.48771 5.25335C2.95117 4.8335 3.59194 4.36712 4.48967 3.71488C5.3874 3.06264 6.02897 2.59735 6.57148 2.28632C7.10382 1.98111 7.49918 1.8498 7.89613 1.83524ZM8 9.71311C9.19662 9.71311 10.1667 10.6832 10.1667 11.8798V14.4812C9.60441 14.5181 8.90886 14.5186 8 14.5186C7.09115 14.5186 6.3956 14.5181 5.83334 14.4812V11.8798C5.83334 10.6832 6.80339 9.71311 8 9.71311Z" fill="white"/>
</g>
<defs>
<clipPath id="clip0_609_593">
<rect width="16" height="16" fill="white"/>
</clipPath>
</defs>
</svg>
