<svg width="12" height="12" viewBox="0 0 12 12" fill="none" xmlns="http://www.w3.org/2000/svg">
<path fill-rule="evenodd" clip-rule="evenodd" d="M3.43155 0.179863C3.22847 0.166007 2.98112 0.166011 2.68481 0.166016H2.65114C2.35483 0.166011 2.10747 0.166007 1.90439 0.179863C1.69299 0.194286 1.49331 0.225382 1.29972 0.30557C0.850498 0.491643 0.493596 0.848545 0.307523 1.29776C0.227335 1.49136 0.196239 1.69104 0.181816 1.90244C0.16796 2.10551 0.167964 2.35287 0.167969 2.64917V2.68285C0.167964 2.97915 0.16796 3.22652 0.181816 3.42959C0.196239 3.64099 0.227335 3.84068 0.307523 4.03427C0.493596 4.48349 0.850498 4.84039 1.29972 5.02646C1.49331 5.10665 1.69299 5.13775 1.90439 5.15217C2.10747 5.16603 2.35482 5.16602 2.65113 5.16602H2.68481C2.98111 5.16602 3.22847 5.16603 3.43155 5.15217C3.64295 5.13775 3.84263 5.10665 4.03622 5.02646C4.48544 4.84039 4.84234 4.48349 5.02842 4.03427C5.1086 3.84068 5.1397 3.64099 5.15412 3.42959C5.16798 3.22652 5.16797 2.97916 5.16797 2.68285V2.64918C5.16797 2.35287 5.16798 2.10551 5.15412 1.90244C5.1397 1.69104 5.1086 1.49136 5.02842 1.29776C4.84234 0.848545 4.48544 0.491643 4.03622 0.30557C3.84263 0.225382 3.64295 0.194286 3.43155 0.179863ZM1.6824 1.22945C1.73384 1.20814 1.81198 1.18849 1.97246 1.17754C2.13744 1.16629 2.3505 1.16602 2.66797 1.16602C2.98544 1.16602 3.1985 1.16629 3.36347 1.17754C3.52396 1.18849 3.6021 1.20814 3.65354 1.22945C3.85773 1.31403 4.01996 1.47626 4.10454 1.68045C4.12584 1.73188 4.14549 1.81003 4.15644 1.97051C4.1677 2.13549 4.16797 2.34855 4.16797 2.66602C4.16797 2.98349 4.1677 3.19655 4.15644 3.36152C4.14549 3.52201 4.12584 3.60015 4.10454 3.65159C4.01996 3.85578 3.85773 4.018 3.65354 4.10258C3.6021 4.12389 3.52396 4.14354 3.36347 4.15449C3.1985 4.16575 2.98544 4.16602 2.66797 4.16602C2.3505 4.16602 2.13744 4.16575 1.97246 4.15449C1.81198 4.14354 1.73384 4.12389 1.6824 4.10258C1.47821 4.018 1.31598 3.85578 1.2314 3.65159C1.2101 3.60015 1.19045 3.52201 1.1795 3.36152C1.16824 3.19655 1.16797 2.98349 1.16797 2.66602C1.16797 2.34855 1.16824 2.13549 1.1795 1.97051C1.19045 1.81003 1.2101 1.73188 1.2314 1.68045C1.31598 1.47626 1.47821 1.31403 1.6824 1.22945Z" fill="white"/>
<path fill-rule="evenodd" clip-rule="evenodd" d="M10.0982 0.179863C9.89514 0.166007 9.64778 0.166011 9.35148 0.166016H9.3178C9.0215 0.166011 8.77413 0.166007 8.57106 0.179863C8.35966 0.194286 8.15998 0.225382 7.96638 0.30557C7.51717 0.491643 7.16026 0.848545 6.97419 1.29776C6.894 1.49136 6.86291 1.69104 6.84848 1.90244C6.83463 2.10551 6.83463 2.35287 6.83464 2.64918V2.68285C6.83463 2.97916 6.83463 3.22652 6.84848 3.42959C6.86291 3.64099 6.894 3.84068 6.97419 4.03427C7.16026 4.48349 7.51717 4.84039 7.96638 5.02646C8.15998 5.10665 8.35966 5.13775 8.57106 5.15217C8.77413 5.16603 9.02149 5.16602 9.3178 5.16602H9.35147C9.64778 5.16602 9.89514 5.16603 10.0982 5.15217C10.3096 5.13775 10.5093 5.10665 10.7029 5.02646C11.1521 4.84039 11.509 4.48349 11.6951 4.03427C11.7753 3.84068 11.8064 3.64099 11.8208 3.42959C11.8346 3.22652 11.8346 2.97916 11.8346 2.68286V2.64918C11.8346 2.35287 11.8346 2.10551 11.8208 1.90244C11.8064 1.69104 11.7753 1.49136 11.6951 1.29776C11.509 0.848545 11.1521 0.491643 10.7029 0.30557C10.5093 0.225382 10.3096 0.194286 10.0982 0.179863ZM8.34907 1.22945C8.4005 1.20814 8.47865 1.18849 8.63913 1.17754C8.80411 1.16629 9.01717 1.16602 9.33464 1.16602C9.65211 1.16602 9.86517 1.16629 10.0301 1.17754C10.1906 1.18849 10.2688 1.20814 10.3202 1.22945C10.5244 1.31403 10.6866 1.47626 10.7712 1.68045C10.7925 1.73188 10.8122 1.81003 10.8231 1.97051C10.8344 2.13549 10.8346 2.34855 10.8346 2.66602C10.8346 2.98349 10.8344 3.19655 10.8231 3.36152C10.8122 3.52201 10.7925 3.60015 10.7712 3.65159C10.6866 3.85578 10.5244 4.018 10.3202 4.10258C10.2688 4.12389 10.1906 4.14354 10.0301 4.15449C9.86517 4.16575 9.65211 4.16602 9.33464 4.16602C9.01717 4.16602 8.80411 4.16575 8.63913 4.15449C8.47865 4.14354 8.4005 4.12389 8.34907 4.10258C8.14488 4.018 7.98265 3.85578 7.89807 3.65159C7.87676 3.60015 7.85711 3.52201 7.84616 3.36152C7.83491 3.19655 7.83464 2.98349 7.83464 2.66602C7.83464 2.34855 7.83491 2.13549 7.84616 1.97051C7.85711 1.81003 7.87676 1.73188 7.89807 1.68045C7.98265 1.47626 8.14488 1.31403 8.34907 1.22945Z" fill="white"/>
<path fill-rule="evenodd" clip-rule="evenodd" d="M3.43155 6.84653C3.22847 6.83267 2.98111 6.83268 2.68481 6.83268H2.65113C2.35483 6.83268 2.10747 6.83267 1.90439 6.84653C1.69299 6.86095 1.49331 6.89205 1.29972 6.97224C0.850498 7.15831 0.493596 7.51521 0.307523 7.96443C0.227335 8.15802 0.196239 8.35771 0.181816 8.56911C0.16796 8.77218 0.167964 9.01954 0.167969 9.31584V9.34952C0.167964 9.64582 0.16796 9.89319 0.181816 10.0963C0.196239 10.3077 0.227335 10.5073 0.307523 10.7009C0.493596 11.1502 0.850498 11.5071 1.29972 11.6931C1.49331 11.7733 1.69299 11.8044 1.90439 11.8188C2.10747 11.8327 2.35482 11.8327 2.65113 11.8327H2.68481C2.98111 11.8327 3.22847 11.8327 3.43155 11.8188C3.64295 11.8044 3.84263 11.7733 4.03622 11.6931C4.48544 11.5071 4.84234 11.1502 5.02842 10.7009C5.1086 10.5073 5.1397 10.3077 5.15412 10.0963C5.16798 9.89319 5.16797 9.64583 5.16797 9.34952V9.31584C5.16797 9.01954 5.16798 8.77218 5.15412 8.56911C5.1397 8.35771 5.1086 8.15802 5.02842 7.96443C4.84234 7.51521 4.48544 7.15831 4.03622 6.97224C3.84263 6.89205 3.64295 6.86095 3.43155 6.84653ZM1.6824 7.89612C1.73384 7.87481 1.81198 7.85516 1.97246 7.84421C2.13744 7.83295 2.3505 7.83268 2.66797 7.83268C2.98544 7.83268 3.1985 7.83295 3.36347 7.84421C3.52396 7.85516 3.6021 7.87481 3.65354 7.89612C3.85773 7.98069 4.01996 8.14292 4.10454 8.34711C4.12584 8.39855 4.14549 8.47669 4.15644 8.63718C4.1677 8.80215 4.16797 9.01521 4.16797 9.33268C4.16797 9.65015 4.1677 9.86321 4.15644 10.0282C4.14549 10.1887 4.12584 10.2668 4.10454 10.3183C4.01996 10.5224 3.85773 10.6847 3.65354 10.7692C3.6021 10.7906 3.52396 10.8102 3.36347 10.8212C3.1985 10.8324 2.98544 10.8327 2.66797 10.8327C2.3505 10.8327 2.13744 10.8324 1.97246 10.8212C1.81198 10.8102 1.73384 10.7906 1.6824 10.7692C1.47821 10.6847 1.31598 10.5224 1.2314 10.3183C1.2101 10.2668 1.19045 10.1887 1.1795 10.0282C1.16824 9.86321 1.16797 9.65015 1.16797 9.33268C1.16797 9.01521 1.16824 8.80215 1.1795 8.63718C1.19045 8.47669 1.2101 8.39855 1.2314 8.34711C1.31598 8.14292 1.47821 7.98069 1.6824 7.89612Z" fill="white"/>
<path fill-rule="evenodd" clip-rule="evenodd" d="M10.0982 6.84653C9.89514 6.83267 9.64778 6.83268 9.35147 6.83268H9.3178C9.02149 6.83268 8.77413 6.83267 8.57106 6.84653C8.35966 6.86095 8.15998 6.89205 7.96638 6.97224C7.51717 7.15831 7.16026 7.51521 6.97419 7.96443C6.894 8.15802 6.86291 8.35771 6.84848 8.56911C6.83463 8.77218 6.83463 9.01954 6.83464 9.31584V9.34952C6.83463 9.64583 6.83463 9.89319 6.84848 10.0963C6.86291 10.3077 6.894 10.5073 6.97419 10.7009C7.16026 11.1502 7.51717 11.5071 7.96638 11.6931C8.15998 11.7733 8.35966 11.8044 8.57106 11.8188C8.77413 11.8327 9.02149 11.8327 9.3178 11.8327H9.35147C9.64778 11.8327 9.89514 11.8327 10.0982 11.8188C10.3096 11.8044 10.5093 11.7733 10.7029 11.6931C11.1521 11.5071 11.509 11.1502 11.6951 10.7009C11.7753 10.5073 11.8064 10.3077 11.8208 10.0963C11.8346 9.89319 11.8346 9.64583 11.8346 9.34952V9.31584C11.8346 9.01954 11.8346 8.77218 11.8208 8.56911C11.8064 8.35771 11.7753 8.15802 11.6951 7.96443C11.509 7.51521 11.1521 7.15831 10.7029 6.97224C10.5093 6.89205 10.3096 6.86095 10.0982 6.84653ZM8.34907 7.89612C8.4005 7.87481 8.47865 7.85516 8.63913 7.84421C8.80411 7.83295 9.01717 7.83268 9.33464 7.83268C9.65211 7.83268 9.86517 7.83295 10.0301 7.84421C10.1906 7.85516 10.2688 7.87481 10.3202 7.89612C10.5244 7.9807 10.6866 8.14292 10.7712 8.34711C10.7925 8.39855 10.8122 8.47669 10.8231 8.63718C10.8344 8.80215 10.8346 9.01521 10.8346 9.33268C10.8346 9.65015 10.8344 9.86321 10.8231 10.0282C10.8122 10.1887 10.7925 10.2668 10.7712 10.3183C10.6866 10.5224 10.5244 10.6847 10.3202 10.7692C10.2688 10.7906 10.1906 10.8102 10.0301 10.8212C9.86517 10.8324 9.65211 10.8327 9.33464 10.8327C9.01717 10.8327 8.80411 10.8324 8.63913 10.8212C8.47865 10.8102 8.4005 10.7906 8.34907 10.7692C8.14488 10.6847 7.98265 10.5224 7.89807 10.3183C7.87676 10.2668 7.85711 10.1887 7.84616 10.0282C7.83491 9.86321 7.83464 9.65015 7.83464 9.33268C7.83464 9.01521 7.83491 8.80215 7.84616 8.63718C7.85711 8.47669 7.87676 8.39855 7.89807 8.34711C7.98265 8.14292 8.14488 7.9807 8.34907 7.89612Z" fill="white"/>
</svg>
