<svg width="13" height="12" viewBox="0 0 13 12" fill="none" xmlns="http://www.w3.org/2000/svg">
<path fill-rule="evenodd" clip-rule="evenodd" d="M7.83333 0.666504C6.45262 0.666504 5.33333 1.78579 5.33333 3.1665C5.33333 4.54722 6.45262 5.6665 7.83333 5.6665C9.21404 5.6665 10.3333 4.54722 10.3333 3.1665C10.3333 1.78579 9.21404 0.666504 7.83333 0.666504ZM6.33333 3.1665C6.33333 2.33808 7.00491 1.6665 7.83333 1.6665C8.66176 1.6665 9.33333 2.33808 9.33333 3.1665C9.33333 3.99493 8.66176 4.6665 7.83333 4.6665C7.00491 4.6665 6.33333 3.99493 6.33333 3.1665Z" fill="white"/>
<path fill-rule="evenodd" clip-rule="evenodd" d="M5.83333 6.6665C4.45262 6.6665 3.33333 7.78579 3.33333 9.1665C3.33333 10.5472 4.45262 11.6665 5.83333 11.6665H9.83333C11.214 11.6665 12.3333 10.5472 12.3333 9.1665C12.3333 7.78579 11.214 6.6665 9.83333 6.6665H5.83333ZM4.33333 9.1665C4.33333 8.33808 5.00491 7.6665 5.83333 7.6665H9.83333C10.6618 7.6665 11.3333 8.33808 11.3333 9.1665C11.3333 9.99493 10.6618 10.6665 9.83333 10.6665H5.83333C5.00491 10.6665 4.33333 9.99493 4.33333 9.1665Z" fill="white"/>
<path d="M5.00143 4.92561C4.89628 4.75669 4.69897 4.6665 4.5 4.6665C3.67157 4.6665 3 3.99493 3 3.1665C3 2.33808 3.67157 1.6665 4.5 1.6665C4.69897 1.6665 4.89628 1.57632 5.00143 1.4074C5.00608 1.39993 5.01076 1.39248 5.01546 1.38505C5.19053 1.10871 5.10183 0.717438 4.77667 0.681639C4.68582 0.671638 4.59351 0.666504 4.5 0.666504C3.11929 0.666504 2 1.78579 2 3.1665C2 4.54722 3.11929 5.6665 4.5 5.6665C4.59351 5.6665 4.68582 5.66137 4.77667 5.65137C5.10183 5.61557 5.19053 5.2243 5.01546 4.94796C5.01076 4.94053 5.00608 4.93308 5.00143 4.92561Z" fill="white"/>
<path d="M2.97219 10.2111C2.89651 10.0848 2.76293 9.99984 2.61572 9.99984H2.5C1.67157 9.99984 1 9.32826 1 8.49984C1 7.67141 1.67157 6.99984 2.5 6.99984H2.61572C2.76293 6.99984 2.89651 6.91485 2.97219 6.78859C3.15693 6.48039 2.95646 5.99984 2.59713 5.99984H2.5C1.11929 5.99984 0 7.11913 0 8.49984C0 9.88055 1.11929 10.9998 2.5 10.9998H2.59713C2.95646 10.9998 3.15693 10.5193 2.97219 10.2111Z" fill="white"/>
</svg>
