<svg width="17" height="16" viewBox="0 0 17 16" fill="none" xmlns="http://www.w3.org/2000/svg">
<g clip-path="url(#clip0_771_384)">
<path fill-rule="evenodd" clip-rule="evenodd" d="M8.49935 2.66602C7.11864 2.66602 5.99935 3.7853 5.99935 5.16602C5.99935 6.54673 7.11864 7.66602 8.49935 7.66602C9.88006 7.66602 10.9993 6.54673 10.9993 5.16602C10.9993 3.7853 9.88006 2.66602 8.49935 2.66602ZM6.99935 5.16602C6.99935 4.33759 7.67092 3.66602 8.49935 3.66602C9.32778 3.66602 9.99935 4.33759 9.99935 5.16602C9.99935 5.99444 9.32778 6.66602 8.49935 6.66602C7.67092 6.66602 6.99935 5.99444 6.99935 5.16602Z" fill="white"/>
<path fill-rule="evenodd" clip-rule="evenodd" d="M6.49935 8.66602C5.11864 8.66602 3.99935 9.7853 3.99935 11.166C3.99935 12.5467 5.11864 13.666 6.49935 13.666H10.4993C11.8801 13.666 12.9993 12.5467 12.9993 11.166C12.9993 9.7853 11.8801 8.66602 10.4993 8.66602H6.49935ZM4.99935 11.166C4.99935 10.3376 5.67092 9.66602 6.49935 9.66602H10.4993C11.3278 9.66602 11.9993 10.3376 11.9993 11.166C11.9993 11.9944 11.3278 12.666 10.4993 12.666H6.49935C5.67092 12.666 4.99935 11.9944 4.99935 11.166Z" fill="white"/>
<path d="M5.66744 6.92512C5.56229 6.7562 5.36499 6.66602 5.16602 6.66602C4.33759 6.66602 3.66602 5.99444 3.66602 5.16602C3.66602 4.33759 4.33759 3.66602 5.16602 3.66602C5.36499 3.66602 5.56229 3.57583 5.66744 3.40691C5.67209 3.39944 5.67677 3.39199 5.68148 3.38456C5.85655 3.10822 5.76785 2.71695 5.44268 2.68115C5.35184 2.67115 5.25953 2.66602 5.16602 2.66602C3.7853 2.66602 2.66602 3.7853 2.66602 5.16602C2.66602 6.54673 3.7853 7.66602 5.16602 7.66602C5.25953 7.66602 5.35184 7.66088 5.44268 7.65088C5.76785 7.61508 5.85655 7.22381 5.68148 6.94747C5.67677 6.94004 5.67209 6.93259 5.66744 6.92512Z" fill="white"/>
<path d="M3.63821 12.2106C3.56253 12.0843 3.42895 11.9993 3.28174 11.9993H3.16602C2.33759 11.9993 1.66602 11.3278 1.66602 10.4993C1.66602 9.67092 2.33759 8.99935 3.16602 8.99935H3.28174C3.42895 8.99935 3.56253 8.91436 3.63821 8.7881C3.82294 8.4799 3.62247 7.99935 3.26314 7.99935H3.16602C1.7853 7.99935 0.666016 9.11864 0.666016 10.4993C0.666016 11.8801 1.7853 12.9993 3.16602 12.9993H3.26314C3.62247 12.9993 3.82294 12.5188 3.63821 12.2106Z" fill="white"/>
<path d="M11.3172 6.94747C11.1421 7.22381 11.2309 7.61508 11.556 7.65088C11.6469 7.66088 11.7392 7.66602 11.8327 7.66602C13.2134 7.66602 14.3327 6.54673 14.3327 5.16602C14.3327 3.7853 13.2134 2.66602 11.8327 2.66602C11.7392 2.66602 11.6469 2.67115 11.556 2.68115C11.2309 2.71695 11.1421 3.10822 11.3172 3.38456C11.3219 3.39199 11.3266 3.39944 11.3313 3.40691C11.4364 3.57583 11.6337 3.66602 11.8327 3.66602C12.6611 3.66602 13.3327 4.33759 13.3327 5.16602C13.3327 5.99444 12.6611 6.66602 11.8327 6.66602C11.6337 6.66602 11.4364 6.7562 11.3313 6.92512C11.3266 6.93259 11.3219 6.94004 11.3172 6.94747Z" fill="white"/>
<path d="M13.3605 12.2106C13.1758 12.5188 13.3762 12.9993 13.7356 12.9993H13.8327C15.2134 12.9993 16.3327 11.8801 16.3327 10.4993C16.3327 9.11864 15.2134 7.99935 13.8327 7.99935H13.7356C13.3762 7.99935 13.1758 8.4799 13.3605 8.7881C13.4362 8.91436 13.5698 8.99935 13.717 8.99935H13.8327C14.6611 8.99935 15.3327 9.67092 15.3327 10.4993C15.3327 11.3278 14.6611 11.9993 13.8327 11.9993H13.717C13.5698 11.9993 13.4362 12.0843 13.3605 12.2106Z" fill="white"/>
</g>
<defs>
<clipPath id="clip0_771_384">
<rect width="16" height="16" fill="white" transform="translate(0.5)"/>
</clipPath>
</defs>
</svg>
