<svg width="13" height="15" viewBox="0 0 13 15" fill="none" xmlns="http://www.w3.org/2000/svg">
<path fill-rule="evenodd" clip-rule="evenodd" d="M6.48494 4C5.47242 4 4.6516 4.82081 4.6516 5.83333C4.6516 6.67252 5.21544 7.38001 5.98494 7.59766V9.83333C5.98494 10.1095 6.2088 10.3333 6.48494 10.3333C6.76108 10.3333 6.98494 10.1095 6.98494 9.83333V7.59766C7.75444 7.38001 8.31827 6.67252 8.31827 5.83333C8.31827 4.82081 7.49746 4 6.48494 4ZM5.6516 5.83333C5.6516 5.3731 6.0247 5 6.48494 5C6.94518 5 7.31827 5.3731 7.31827 5.83333C7.31827 6.29357 6.94518 6.66667 6.48494 6.66667C6.0247 6.66667 5.6516 6.29357 5.6516 5.83333Z" fill="white"/>
<path fill-rule="evenodd" clip-rule="evenodd" d="M4.86025 0C3.83239 0 2.99914 0.833248 2.99914 1.86111C2.99914 2.33669 2.61361 2.72222 2.13803 2.72222H1.93212C0.881415 2.72222 -0.0545292 3.53515 0.00247565 4.66432C0.070158 6.005 0.367926 8.09454 1.45403 10.0739C1.75822 10.6282 2.16448 11.1728 2.60366 11.6802L2.63672 11.7184C3.2685 12.4484 3.79527 13.0571 4.36159 13.472C4.97071 13.9182 5.62084 14.1405 6.48503 14.1405C7.34923 14.1405 7.99935 13.9182 8.60847 13.472C9.17479 13.0571 9.70156 12.4484 10.3333 11.7184L10.3664 11.6802C10.8056 11.1728 11.2118 10.6282 11.516 10.0739C12.6382 8.02873 12.9181 5.71778 12.9733 4.27707C13.0163 3.15333 12.087 2.33333 11.0305 2.33333H10.6376C10.2694 2.33333 9.97092 2.03486 9.97092 1.66667C9.97092 0.746192 9.22473 0 8.30426 0H4.86025ZM3.99914 1.86111C3.99914 1.38553 4.38467 1 4.86025 1H8.30426C8.67245 1 8.97092 1.29848 8.97092 1.66667C8.97092 2.58714 9.71712 3.33333 10.6376 3.33333H11.0305C11.5889 3.33333 11.9928 3.74873 11.974 4.23879C11.9213 5.61529 11.6529 7.74576 10.6393 9.5928C10.3801 10.0653 10.021 10.5512 9.61029 11.0258C8.93688 11.8038 8.48215 12.3249 8.0175 12.6653C7.5858 12.9815 7.14423 13.1405 6.48503 13.1405C5.82583 13.1405 5.38426 12.9815 4.95257 12.6653C4.48791 12.3249 4.03319 11.8038 3.35977 11.0258C2.94905 10.5512 2.59001 10.0653 2.33072 9.5928C1.34506 7.79653 1.06484 5.87439 1.0012 4.6139C0.976993 4.13433 1.37203 3.72222 1.93212 3.72222H2.13803C3.16589 3.72222 3.99914 2.88897 3.99914 1.86111Z" fill="white"/>
</svg>
