<svg width="8" height="14" viewBox="0 0 8 14" fill="none" xmlns="http://www.w3.org/2000/svg">
<path d="M7.83133 12.9188C7.87738 12.9617 7.91432 13.0134 7.93994 13.0709C7.96556 13.1284 7.97933 13.1905 7.98044 13.2535C7.98156 13.3164 7.96998 13.3789 7.9464 13.4373C7.92283 13.4956 7.88774 13.5487 7.84322 13.5932C7.79871 13.6377 7.74569 13.6728 7.68732 13.6964C7.62896 13.7199 7.56644 13.7315 7.5035 13.7304C7.44056 13.7293 7.37849 13.7155 7.32099 13.6899C7.26349 13.6643 7.21174 13.6273 7.16883 13.5813L0.918826 7.33128C0.831044 7.24339 0.781738 7.12425 0.781738 7.00003C0.781738 6.87581 0.831044 6.75667 0.918826 6.66878L7.16883 0.418776C7.25768 0.335976 7.37521 0.290899 7.49665 0.293042C7.61809 0.295184 7.73396 0.344379 7.81984 0.430262C7.90572 0.516146 7.95492 0.632011 7.95706 0.753449C7.9592 0.874888 7.91413 0.992417 7.83133 1.08128L1.91336 7.00003L7.83133 12.9188Z" fill="black"/>
</svg>
