<svg width="23" height="20" viewBox="0 0 23 20" fill="none" xmlns="http://www.w3.org/2000/svg">
<path d="M21.5625 17.9994H19.875V7.31195C19.875 6.96385 19.7367 6.63001 19.4906 6.38387C19.2444 6.13773 18.9106 5.99945 18.5625 5.99945H12.375V1.31195C12.3749 1.07439 12.3103 0.841318 12.1882 0.637577C12.066 0.433837 11.8909 0.267071 11.6814 0.15506C11.4719 0.04305 11.2359 -0.0100043 10.9986 0.00155503C10.7614 0.0131143 10.5317 0.0888537 10.3341 0.220697L2.83406 5.22038C2.65433 5.3403 2.50699 5.50273 2.4051 5.69325C2.30321 5.88378 2.24994 6.09651 2.25 6.31257V17.9994H0.5625C0.413316 17.9994 0.270242 18.0587 0.164752 18.1642C0.0592632 18.2697 0 18.4128 0 18.5619C0 18.7111 0.0592632 18.8542 0.164752 18.9597C0.270242 19.0652 0.413316 19.1244 0.5625 19.1244H21.5625C21.7117 19.1244 21.8548 19.0652 21.9602 18.9597C22.0657 18.8542 22.125 18.7111 22.125 18.5619C22.125 18.4128 22.0657 18.2697 21.9602 18.1642C21.8548 18.0587 21.7117 17.9994 21.5625 17.9994ZM18.5625 7.12445C18.6122 7.12445 18.6599 7.1442 18.6951 7.17936C18.7302 7.21453 18.75 7.26222 18.75 7.31195V17.9994H12.375V7.12445H18.5625ZM3.375 6.31257C3.37506 6.28177 3.3827 6.25147 3.39725 6.22432C3.4118 6.19718 3.43282 6.17404 3.45844 6.15695L10.9584 1.15632C10.9866 1.1375 11.0194 1.12668 11.0533 1.12502C11.0872 1.12336 11.1209 1.13091 11.1508 1.14688C11.1807 1.16285 11.2057 1.18664 11.2232 1.2157C11.2407 1.24477 11.2499 1.27803 11.25 1.31195V17.9994H3.375V6.31257ZM9.375 8.81195V10.3119C9.375 10.4611 9.31574 10.6042 9.21025 10.7097C9.10476 10.8152 8.96168 10.8744 8.8125 10.8744C8.66332 10.8744 8.52024 10.8152 8.41475 10.7097C8.30926 10.6042 8.25 10.4611 8.25 10.3119V8.81195C8.25 8.66276 8.30926 8.51969 8.41475 8.4142C8.52024 8.30871 8.66332 8.24945 8.8125 8.24945C8.96168 8.24945 9.10476 8.30871 9.21025 8.4142C9.31574 8.51969 9.375 8.66276 9.375 8.81195ZM6.375 8.81195V10.3119C6.375 10.4611 6.31574 10.6042 6.21025 10.7097C6.10476 10.8152 5.96168 10.8744 5.8125 10.8744C5.66332 10.8744 5.52024 10.8152 5.41475 10.7097C5.30926 10.6042 5.25 10.4611 5.25 10.3119V8.81195C5.25 8.66276 5.30926 8.51969 5.41475 8.4142C5.52024 8.30871 5.66332 8.24945 5.8125 8.24945C5.96168 8.24945 6.10476 8.30871 6.21025 8.4142C6.31574 8.51969 6.375 8.66276 6.375 8.81195ZM6.375 14.0619V15.5619C6.375 15.7111 6.31574 15.8542 6.21025 15.9597C6.10476 16.0652 5.96168 16.1244 5.8125 16.1244C5.66332 16.1244 5.52024 16.0652 5.41475 15.9597C5.30926 15.8542 5.25 15.7111 5.25 15.5619V14.0619C5.25 13.9128 5.30926 13.7697 5.41475 13.6642C5.52024 13.5587 5.66332 13.4994 5.8125 13.4994C5.96168 13.4994 6.10476 13.5587 6.21025 13.6642C6.31574 13.7697 6.375 13.9128 6.375 14.0619ZM9.375 14.0619V15.5619C9.375 15.7111 9.31574 15.8542 9.21025 15.9597C9.10476 16.0652 8.96168 16.1244 8.8125 16.1244C8.66332 16.1244 8.52024 16.0652 8.41475 15.9597C8.30926 15.8542 8.25 15.7111 8.25 15.5619V14.0619C8.25 13.9128 8.30926 13.7697 8.41475 13.6642C8.52024 13.5587 8.66332 13.4994 8.8125 13.4994C8.96168 13.4994 9.10476 13.5587 9.21025 13.6642C9.31574 13.7697 9.375 13.9128 9.375 14.0619Z" fill="#00A33F"/>
</svg>
