<svg width="8" height="8" viewBox="0 0 8 8" fill="none" xmlns="http://www.w3.org/2000/svg">
<path d="M7.5875 1.31854L6.3375 0.0685438C6.29356 0.024653 6.23398 0 6.17188 0C6.10977 0 6.0502 0.024653 6.00625 0.0685438L2.25625 3.81854C2.21228 3.86246 2.18755 3.92203 2.1875 3.98417V5.23417C2.1875 5.29633 2.21219 5.35594 2.25615 5.3999C2.3001 5.44385 2.35972 5.46854 2.42188 5.46854H3.67188C3.73401 5.46849 3.79359 5.44376 3.8375 5.39979L7.5875 1.64979C7.63139 1.60585 7.65604 1.54628 7.65604 1.48417C7.65604 1.42206 7.63139 1.36249 7.5875 1.31854ZM3.57461 4.99979H2.65625V4.08144L5.23438 1.50331L6.15273 2.42167L3.57461 4.99979ZM6.48438 2.09003L5.56602 1.17167L6.17188 0.565809L7.09023 1.48417L6.48438 2.09003ZM7.34375 3.98417V7.10917C7.34375 7.25421 7.28613 7.39331 7.18357 7.49587C7.08102 7.59843 6.94192 7.65604 6.79688 7.65604H0.546875C0.401835 7.65604 0.262735 7.59843 0.160176 7.49587C0.0576171 7.39331 0 7.25421 0 7.10917V0.859169C0 0.714129 0.0576171 0.575029 0.160176 0.47247C0.262735 0.369911 0.401835 0.312294 0.546875 0.312294H3.67188C3.73404 0.312294 3.79365 0.336987 3.8376 0.380941C3.88156 0.424894 3.90625 0.484509 3.90625 0.546669C3.90625 0.608829 3.88156 0.668443 3.8376 0.712397C3.79365 0.756351 3.73404 0.781044 3.67188 0.781044H0.546875C0.526155 0.781044 0.506284 0.789275 0.491632 0.803926C0.476981 0.818577 0.46875 0.838449 0.46875 0.859169V7.10917C0.46875 7.12989 0.476981 7.14976 0.491632 7.16441C0.506284 7.17906 0.526155 7.18729 0.546875 7.18729H6.79688C6.8176 7.18729 6.83747 7.17906 6.85212 7.16441C6.86677 7.14976 6.875 7.12989 6.875 7.10917V3.98417C6.875 3.92201 6.89969 3.8624 6.94365 3.81844C6.9876 3.77449 7.04722 3.74979 7.10938 3.74979C7.17154 3.74979 7.23115 3.77449 7.2751 3.81844C7.31906 3.8624 7.34375 3.92201 7.34375 3.98417Z" fill="black"/>
</svg>
