<svg width="20" height="17" viewBox="0 0 20 17" fill="none" xmlns="http://www.w3.org/2000/svg">
<path d="M17.8125 0H1.3125C0.964403 0 0.630564 0.138281 0.384422 0.384422C0.138281 0.630564 0 0.964403 0 1.3125V14.8125C0 15.1606 0.138281 15.4944 0.384422 15.7406C0.630564 15.9867 0.964403 16.125 1.3125 16.125H17.8125C18.1606 16.125 18.4944 15.9867 18.7406 15.7406C18.9867 15.4944 19.125 15.1606 19.125 14.8125V1.3125C19.125 0.964403 18.9867 0.630564 18.7406 0.384422C18.4944 0.138281 18.1606 0 17.8125 0ZM18 1.3125V7.5H13.125V1.125H17.8125C17.8622 1.125 17.9099 1.14475 17.9451 1.17992C17.9802 1.21508 18 1.26277 18 1.3125ZM1.125 14.8125V1.3125C1.125 1.26277 1.14475 1.21508 1.17992 1.17992C1.21508 1.14475 1.26277 1.125 1.3125 1.125H12V15H1.3125C1.26277 15 1.21508 14.9802 1.17992 14.9451C1.14475 14.9099 1.125 14.8622 1.125 14.8125ZM17.8125 15H13.125V8.625H18V14.8125C18 14.8622 17.9802 14.9099 17.9451 14.9451C17.9099 14.9802 17.8622 15 17.8125 15ZM14.625 4.3125C14.625 4.12708 14.68 3.94582 14.783 3.79165C14.886 3.63748 15.0324 3.51732 15.2037 3.44636C15.375 3.37541 15.5635 3.35684 15.7454 3.39301C15.9273 3.42919 16.0943 3.51848 16.2254 3.64959C16.3565 3.7807 16.4458 3.94775 16.482 4.1296C16.5182 4.31146 16.4996 4.49996 16.4286 4.67127C16.3577 4.84257 16.2375 4.98899 16.0833 5.092C15.9292 5.19502 15.7479 5.25 15.5625 5.25C15.3139 5.25 15.0754 5.15123 14.8996 4.97541C14.7238 4.7996 14.625 4.56114 14.625 4.3125ZM16.5 11.8125C16.5 11.9979 16.445 12.1792 16.342 12.3333C16.239 12.4875 16.0926 12.6077 15.9213 12.6786C15.75 12.7496 15.5615 12.7682 15.3796 12.732C15.1977 12.6958 15.0307 12.6065 14.8996 12.4754C14.7685 12.3443 14.6792 12.1773 14.643 11.9954C14.6068 11.8135 14.6254 11.625 14.6964 11.4537C14.7673 11.2824 14.8875 11.136 15.0417 11.033C15.1958 10.93 15.3771 10.875 15.5625 10.875C15.8111 10.875 16.0496 10.9738 16.2254 11.1496C16.4012 11.3254 16.5 11.5639 16.5 11.8125ZM10.1072 11.6728C9.9814 11.2065 9.76212 10.7707 9.46268 10.3918C9.16324 10.0129 8.78989 9.69888 8.36531 9.46875C8.80887 9.09848 9.12763 8.60059 9.27824 8.04277C9.42885 7.48495 9.404 6.89428 9.20708 6.35109C9.01015 5.80789 8.65071 5.33852 8.17762 5.00681C7.70453 4.6751 7.14076 4.49715 6.56297 4.49715C5.98518 4.49715 5.42141 4.6751 4.94832 5.00681C4.47523 5.33852 4.11578 5.80789 3.91886 6.35109C3.72194 6.89428 3.69709 7.48495 3.8477 8.04277C3.99831 8.60059 4.31707 9.09848 4.76062 9.46875C4.33597 9.69868 3.9625 10.0125 3.6629 10.3913C3.3633 10.77 3.14383 11.2057 3.01781 11.6719C2.98052 11.8163 3.00213 11.9697 3.07791 12.0982C3.15369 12.2267 3.27741 12.3199 3.42188 12.3572C3.56634 12.3945 3.71969 12.3729 3.84822 12.2971C3.97674 12.2213 4.06989 12.0976 4.10719 11.9531C4.37531 10.9106 5.43094 10.125 6.5625 10.125C7.69406 10.125 8.75063 10.9106 9.01781 11.9522C9.05511 12.0966 9.14826 12.2204 9.27678 12.2962C9.40531 12.3719 9.55867 12.3935 9.70312 12.3563C9.84758 12.319 9.97131 12.2258 10.0471 12.0973C10.1229 11.9688 10.1445 11.8154 10.1072 11.6709V11.6728ZM4.875 7.3125C4.875 6.97874 4.97397 6.65248 5.1594 6.37498C5.34482 6.09747 5.60837 5.88118 5.91672 5.75345C6.22507 5.62573 6.56437 5.59231 6.89172 5.65742C7.21906 5.72254 7.51974 5.88326 7.75574 6.11926C7.99174 6.35526 8.15246 6.65594 8.21758 6.98328C8.28269 7.31063 8.24927 7.64993 8.12155 7.95828C7.99382 8.26663 7.77753 8.53018 7.50002 8.7156C7.22252 8.90103 6.89626 9 6.5625 9C6.11495 9 5.68573 8.82221 5.36926 8.50574C5.05279 8.18927 4.875 7.76005 4.875 7.3125Z" fill="#FF0105"/>
</svg>
