<svg width="12" height="12" viewBox="0 0 12 12" fill="none" xmlns="http://www.w3.org/2000/svg">
<path fill-rule="evenodd" clip-rule="evenodd" d="M3.43155 0.180351C3.22847 0.166495 2.98112 0.166499 2.68481 0.166504H2.65114C2.35483 0.166499 2.10747 0.166495 1.90439 0.180351C1.69299 0.194775 1.49331 0.22587 1.29972 0.306059C0.850498 0.492131 0.493596 0.849033 0.307523 1.29825C0.227335 1.49184 0.196239 1.69153 0.181816 1.90293C0.16796 2.106 0.167964 2.35336 0.167969 2.64966V2.68334C0.167964 2.97964 0.16796 3.22701 0.181816 3.43008C0.196239 3.64148 0.227335 3.84117 0.307523 4.03476C0.493596 4.48398 0.850498 4.84088 1.29972 5.02695C1.49331 5.10714 1.69299 5.13823 1.90439 5.15266C2.10747 5.16651 2.35482 5.16651 2.65113 5.1665H2.68481C2.98111 5.16651 3.22847 5.16651 3.43155 5.15266C3.64295 5.13823 3.84263 5.10714 4.03622 5.02695C4.48544 4.84088 4.84234 4.48398 5.02842 4.03476C5.1086 3.84117 5.1397 3.64148 5.15412 3.43008C5.16798 3.22701 5.16797 2.97965 5.16797 2.68334V2.64967C5.16797 2.35336 5.16798 2.106 5.15412 1.90293C5.1397 1.69153 5.1086 1.49184 5.02842 1.29825C4.84234 0.849033 4.48544 0.492131 4.03622 0.306059C3.84263 0.22587 3.64295 0.194775 3.43155 0.180351ZM1.6824 1.22994C1.73384 1.20863 1.81198 1.18898 1.97246 1.17803C2.13744 1.16678 2.3505 1.1665 2.66797 1.1665C2.98544 1.1665 3.1985 1.16678 3.36347 1.17803C3.52396 1.18898 3.6021 1.20863 3.65354 1.22994C3.85773 1.31452 4.01996 1.47674 4.10454 1.68093C4.12584 1.73237 4.14549 1.81051 4.15644 1.971C4.1677 2.13597 4.16797 2.34904 4.16797 2.6665C4.16797 2.98397 4.1677 3.19703 4.15644 3.36201C4.14549 3.52249 4.12584 3.60064 4.10454 3.65207C4.01996 3.85626 3.85773 4.01849 3.65354 4.10307C3.6021 4.12438 3.52396 4.14403 3.36347 4.15498C3.1985 4.16623 2.98544 4.1665 2.66797 4.1665C2.3505 4.1665 2.13744 4.16623 1.97246 4.15498C1.81198 4.14403 1.73384 4.12438 1.6824 4.10307C1.47821 4.01849 1.31598 3.85626 1.2314 3.65207C1.2101 3.60064 1.19045 3.52249 1.1795 3.36201C1.16824 3.19703 1.16797 2.98397 1.16797 2.6665C1.16797 2.34904 1.16824 2.13597 1.1795 1.971C1.19045 1.81051 1.2101 1.73237 1.2314 1.68093C1.31598 1.47674 1.47821 1.31452 1.6824 1.22994Z" fill="black"/>
<path fill-rule="evenodd" clip-rule="evenodd" d="M10.0982 0.180351C9.89514 0.166495 9.64778 0.166499 9.35148 0.166504H9.3178C9.0215 0.166499 8.77413 0.166495 8.57106 0.180351C8.35966 0.194775 8.15998 0.22587 7.96638 0.306059C7.51717 0.492131 7.16026 0.849033 6.97419 1.29825C6.894 1.49184 6.86291 1.69153 6.84848 1.90293C6.83463 2.106 6.83463 2.35336 6.83464 2.64967V2.68334C6.83463 2.97965 6.83463 3.22701 6.84848 3.43008C6.86291 3.64148 6.894 3.84117 6.97419 4.03476C7.16026 4.48398 7.51717 4.84088 7.96638 5.02695C8.15998 5.10714 8.35966 5.13823 8.57106 5.15266C8.77413 5.16651 9.02149 5.16651 9.3178 5.1665H9.35147C9.64778 5.16651 9.89514 5.16651 10.0982 5.15266C10.3096 5.13823 10.5093 5.10714 10.7029 5.02695C11.1521 4.84088 11.509 4.48398 11.6951 4.03476C11.7753 3.84117 11.8064 3.64148 11.8208 3.43008C11.8346 3.22701 11.8346 2.97965 11.8346 2.68334V2.64967C11.8346 2.35336 11.8346 2.106 11.8208 1.90293C11.8064 1.69153 11.7753 1.49184 11.6951 1.29825C11.509 0.849033 11.1521 0.492131 10.7029 0.306059C10.5093 0.22587 10.3096 0.194775 10.0982 0.180351ZM8.34907 1.22994C8.4005 1.20863 8.47865 1.18898 8.63913 1.17803C8.80411 1.16678 9.01717 1.1665 9.33464 1.1665C9.65211 1.1665 9.86517 1.16678 10.0301 1.17803C10.1906 1.18898 10.2688 1.20863 10.3202 1.22994C10.5244 1.31452 10.6866 1.47675 10.7712 1.68093C10.7925 1.73237 10.8122 1.81051 10.8231 1.971C10.8344 2.13597 10.8346 2.34904 10.8346 2.6665C10.8346 2.98397 10.8344 3.19703 10.8231 3.36201C10.8122 3.52249 10.7925 3.60064 10.7712 3.65207C10.6866 3.85626 10.5244 4.01849 10.3202 4.10307C10.2688 4.12438 10.1906 4.14403 10.0301 4.15498C9.86517 4.16623 9.65211 4.1665 9.33464 4.1665C9.01717 4.1665 8.80411 4.16623 8.63913 4.15498C8.47865 4.14403 8.4005 4.12438 8.34907 4.10307C8.14488 4.01849 7.98265 3.85626 7.89807 3.65207C7.87676 3.60064 7.85711 3.52249 7.84616 3.36201C7.83491 3.19703 7.83464 2.98397 7.83464 2.6665C7.83464 2.34904 7.83491 2.13597 7.84616 1.971C7.85711 1.81051 7.87676 1.73237 7.89807 1.68093C7.98265 1.47675 8.14488 1.31452 8.34907 1.22994Z" fill="black"/>
<path fill-rule="evenodd" clip-rule="evenodd" d="M3.43155 6.84702C3.22847 6.83316 2.98111 6.83317 2.68481 6.83317H2.65113C2.35483 6.83317 2.10747 6.83316 1.90439 6.84702C1.69299 6.86144 1.49331 6.89254 1.29972 6.97273C0.850498 7.1588 0.493596 7.5157 0.307523 7.96492C0.227335 8.15851 0.196239 8.3582 0.181816 8.5696C0.16796 8.77267 0.167964 9.02002 0.167969 9.31633V9.35001C0.167964 9.64631 0.16796 9.89367 0.181816 10.0967C0.196239 10.3081 0.227335 10.5078 0.307523 10.7014C0.493596 11.1506 0.850498 11.5075 1.29972 11.6936C1.49331 11.7738 1.69299 11.8049 1.90439 11.8193C2.10747 11.8332 2.35482 11.8332 2.65113 11.8332H2.68481C2.98111 11.8332 3.22847 11.8332 3.43155 11.8193C3.64295 11.8049 3.84263 11.7738 4.03622 11.6936C4.48544 11.5075 4.84234 11.1506 5.02842 10.7014C5.1086 10.5078 5.1397 10.3081 5.15412 10.0967C5.16798 9.89367 5.16797 9.64632 5.16797 9.35001V9.31633C5.16797 9.02003 5.16798 8.77267 5.15412 8.5696C5.1397 8.3582 5.1086 8.15851 5.02842 7.96492C4.84234 7.5157 4.48544 7.1588 4.03622 6.97273C3.84263 6.89254 3.64295 6.86144 3.43155 6.84702ZM1.6824 7.8966C1.73384 7.8753 1.81198 7.85565 1.97246 7.8447C2.13744 7.83344 2.3505 7.83317 2.66797 7.83317C2.98544 7.83317 3.1985 7.83344 3.36347 7.8447C3.52396 7.85565 3.6021 7.8753 3.65354 7.8966C3.85773 7.98118 4.01996 8.14341 4.10454 8.3476C4.12584 8.39904 4.14549 8.47718 4.15644 8.63767C4.1677 8.80264 4.16797 9.0157 4.16797 9.33317C4.16797 9.65064 4.1677 9.8637 4.15644 10.0287C4.14549 10.1892 4.12584 10.2673 4.10454 10.3187C4.01996 10.5229 3.85773 10.6852 3.65354 10.7697C3.6021 10.791 3.52396 10.8107 3.36347 10.8216C3.1985 10.8329 2.98544 10.8332 2.66797 10.8332C2.3505 10.8332 2.13744 10.8329 1.97246 10.8216C1.81198 10.8107 1.73384 10.791 1.6824 10.7697C1.47821 10.6852 1.31598 10.5229 1.2314 10.3187C1.2101 10.2673 1.19045 10.1892 1.1795 10.0287C1.16824 9.8637 1.16797 9.65064 1.16797 9.33317C1.16797 9.0157 1.16824 8.80264 1.1795 8.63767C1.19045 8.47718 1.2101 8.39904 1.2314 8.3476C1.31598 8.14341 1.47821 7.98118 1.6824 7.8966Z" fill="black"/>
<path fill-rule="evenodd" clip-rule="evenodd" d="M10.0982 6.84702C9.89514 6.83316 9.64778 6.83317 9.35147 6.83317H9.3178C9.02149 6.83317 8.77413 6.83316 8.57106 6.84702C8.35966 6.86144 8.15998 6.89254 7.96638 6.97273C7.51717 7.1588 7.16026 7.5157 6.97419 7.96492C6.894 8.15851 6.86291 8.3582 6.84848 8.5696C6.83463 8.77267 6.83463 9.02003 6.83464 9.31633V9.35001C6.83463 9.64632 6.83463 9.89367 6.84848 10.0967C6.86291 10.3081 6.894 10.5078 6.97419 10.7014C7.16026 11.1506 7.51717 11.5075 7.96638 11.6936C8.15998 11.7738 8.35966 11.8049 8.57106 11.8193C8.77413 11.8332 9.02149 11.8332 9.3178 11.8332H9.35147C9.64778 11.8332 9.89514 11.8332 10.0982 11.8193C10.3096 11.8049 10.5093 11.7738 10.7029 11.6936C11.1521 11.5075 11.509 11.1506 11.6951 10.7014C11.7753 10.5078 11.8064 10.3081 11.8208 10.0967C11.8346 9.89367 11.8346 9.64632 11.8346 9.35001V9.31633C11.8346 9.02003 11.8346 8.77267 11.8208 8.5696C11.8064 8.3582 11.7753 8.15851 11.6951 7.96492C11.509 7.5157 11.1521 7.1588 10.7029 6.97273C10.5093 6.89254 10.3096 6.86144 10.0982 6.84702ZM8.34907 7.8966C8.4005 7.8753 8.47865 7.85565 8.63913 7.8447C8.80411 7.83344 9.01717 7.83317 9.33464 7.83317C9.65211 7.83317 9.86517 7.83344 10.0301 7.8447C10.1906 7.85565 10.2688 7.8753 10.3202 7.8966C10.5244 7.98118 10.6866 8.14341 10.7712 8.3476C10.7925 8.39904 10.8122 8.47718 10.8231 8.63767C10.8344 8.80264 10.8346 9.0157 10.8346 9.33317C10.8346 9.65064 10.8344 9.8637 10.8231 10.0287C10.8122 10.1892 10.7925 10.2673 10.7712 10.3187C10.6866 10.5229 10.5244 10.6852 10.3202 10.7697C10.2688 10.791 10.1906 10.8107 10.0301 10.8216C9.86517 10.8329 9.65211 10.8332 9.33464 10.8332C9.01717 10.8332 8.80411 10.8329 8.63913 10.8216C8.47865 10.8107 8.4005 10.791 8.34907 10.7697C8.14488 10.6852 7.98265 10.5229 7.89807 10.3187C7.87676 10.2673 7.85711 10.1892 7.84616 10.0287C7.83491 9.8637 7.83464 9.65064 7.83464 9.33317C7.83464 9.0157 7.83491 8.80264 7.84616 8.63767C7.85711 8.47718 7.87676 8.39904 7.89807 8.3476C7.98265 8.14341 8.14488 7.98118 8.34907 7.8966Z" fill="black"/>
</svg>
