<svg width="17" height="16" viewBox="0 0 17 16" fill="none" xmlns="http://www.w3.org/2000/svg">
<g clip-path="url(#clip0_771_3551)">
<path fill-rule="evenodd" clip-rule="evenodd" d="M8.49935 2.66699C7.11864 2.66699 5.99935 3.78628 5.99935 5.16699C5.99935 6.5477 7.11864 7.66699 8.49935 7.66699C9.88006 7.66699 10.9993 6.5477 10.9993 5.16699C10.9993 3.78628 9.88006 2.66699 8.49935 2.66699ZM6.99935 5.16699C6.99935 4.33857 7.67092 3.66699 8.49935 3.66699C9.32778 3.66699 9.99935 4.33857 9.99935 5.16699C9.99935 5.99542 9.32778 6.66699 8.49935 6.66699C7.67092 6.66699 6.99935 5.99542 6.99935 5.16699Z" fill="black"/>
<path fill-rule="evenodd" clip-rule="evenodd" d="M6.49935 8.66699C5.11864 8.66699 3.99935 9.78628 3.99935 11.167C3.99935 12.5477 5.11864 13.667 6.49935 13.667H10.4993C11.8801 13.667 12.9993 12.5477 12.9993 11.167C12.9993 9.78628 11.8801 8.66699 10.4993 8.66699H6.49935ZM4.99935 11.167C4.99935 10.3386 5.67092 9.66699 6.49935 9.66699H10.4993C11.3278 9.66699 11.9993 10.3386 11.9993 11.167C11.9993 11.9954 11.3278 12.667 10.4993 12.667H6.49935C5.67092 12.667 4.99935 11.9954 4.99935 11.167Z" fill="black"/>
<path d="M5.66744 6.9261C5.56229 6.75717 5.36499 6.66699 5.16602 6.66699C4.33759 6.66699 3.66602 5.99542 3.66602 5.16699C3.66602 4.33857 4.33759 3.66699 5.16602 3.66699C5.36499 3.66699 5.56229 3.57681 5.66744 3.40789C5.67209 3.40042 5.67677 3.39297 5.68148 3.38554C5.85655 3.1092 5.76785 2.71793 5.44268 2.68213C5.35184 2.67213 5.25953 2.66699 5.16602 2.66699C3.7853 2.66699 2.66602 3.78628 2.66602 5.16699C2.66602 6.5477 3.7853 7.66699 5.16602 7.66699C5.25953 7.66699 5.35184 7.66186 5.44268 7.65186C5.76785 7.61606 5.85655 7.22479 5.68148 6.94845C5.67677 6.94102 5.67209 6.93357 5.66744 6.9261Z" fill="black"/>
<path d="M3.63821 12.2116C3.56253 12.0853 3.42895 12.0003 3.28174 12.0003H3.16602C2.33759 12.0003 1.66602 11.3288 1.66602 10.5003C1.66602 9.6719 2.33759 9.00033 3.16602 9.00033H3.28174C3.42895 9.00033 3.56253 8.91534 3.63821 8.78908C3.82294 8.48087 3.62247 8.00033 3.26314 8.00033H3.16602C1.7853 8.00033 0.666016 9.11961 0.666016 10.5003C0.666016 11.881 1.7853 13.0003 3.16602 13.0003H3.26314C3.62247 13.0003 3.82294 12.5198 3.63821 12.2116Z" fill="black"/>
<path d="M11.3172 6.94845C11.1421 7.22479 11.2309 7.61606 11.556 7.65186C11.6469 7.66186 11.7392 7.66699 11.8327 7.66699C13.2134 7.66699 14.3327 6.5477 14.3327 5.16699C14.3327 3.78628 13.2134 2.66699 11.8327 2.66699C11.7392 2.66699 11.6469 2.67213 11.556 2.68213C11.2309 2.71793 11.1421 3.1092 11.3172 3.38554C11.3219 3.39297 11.3266 3.40042 11.3313 3.40789C11.4364 3.57681 11.6337 3.66699 11.8327 3.66699C12.6611 3.66699 13.3327 4.33857 13.3327 5.16699C13.3327 5.99542 12.6611 6.66699 11.8327 6.66699C11.6337 6.66699 11.4364 6.75717 11.3313 6.9261C11.3266 6.93357 11.3219 6.94102 11.3172 6.94845Z" fill="black"/>
<path d="M13.3605 12.2116C13.1758 12.5198 13.3762 13.0003 13.7356 13.0003H13.8327C15.2134 13.0003 16.3327 11.881 16.3327 10.5003C16.3327 9.11961 15.2134 8.00033 13.8327 8.00033H13.7356C13.3762 8.00033 13.1758 8.48087 13.3605 8.78908C13.4362 8.91534 13.5698 9.00033 13.717 9.00033H13.8327C14.6611 9.00033 15.3327 9.6719 15.3327 10.5003C15.3327 11.3288 14.6611 12.0003 13.8327 12.0003H13.717C13.5698 12.0003 13.4362 12.0853 13.3605 12.2116Z" fill="black"/>
</g>
<defs>
<clipPath id="clip0_771_3551">
<rect width="16" height="16" fill="white" transform="translate(0.5)"/>
</clipPath>
</defs>
</svg>
