<svg width="13" height="12" viewBox="0 0 13 12" fill="none" xmlns="http://www.w3.org/2000/svg">
<path fill-rule="evenodd" clip-rule="evenodd" d="M8.33333 0.666656C6.95262 0.666656 5.83333 1.78594 5.83333 3.16666C5.83333 4.54737 6.95262 5.66666 8.33333 5.66666C9.71404 5.66666 10.8333 4.54737 10.8333 3.16666C10.8333 1.78594 9.71404 0.666656 8.33333 0.666656ZM6.83333 3.16666C6.83333 2.33823 7.50491 1.66666 8.33333 1.66666C9.16176 1.66666 9.83333 2.33823 9.83333 3.16666C9.83333 3.99508 9.16176 4.66666 8.33333 4.66666C7.50491 4.66666 6.83333 3.99508 6.83333 3.16666Z" fill="black"/>
<path fill-rule="evenodd" clip-rule="evenodd" d="M6.33333 6.66666C4.95262 6.66666 3.83333 7.78594 3.83333 9.16666C3.83333 10.5474 4.95262 11.6667 6.33333 11.6667H10.3333C11.714 11.6667 12.8333 10.5474 12.8333 9.16666C12.8333 7.78594 11.714 6.66666 10.3333 6.66666H6.33333ZM4.83333 9.16666C4.83333 8.33823 5.50491 7.66666 6.33333 7.66666H10.3333C11.1618 7.66666 11.8333 8.33823 11.8333 9.16666C11.8333 9.99508 11.1618 10.6667 10.3333 10.6667H6.33333C5.50491 10.6667 4.83333 9.99508 4.83333 9.16666Z" fill="black"/>
<path d="M5.50143 4.92576C5.39628 4.75684 5.19897 4.66666 5 4.66666C4.17157 4.66666 3.5 3.99508 3.5 3.16666C3.5 2.33823 4.17157 1.66666 5 1.66666C5.19897 1.66666 5.39628 1.57647 5.50143 1.40755C5.50608 1.40008 5.51076 1.39263 5.51546 1.3852C5.69053 1.10886 5.60183 0.71759 5.27667 0.681792C5.18582 0.67179 5.09351 0.666656 5 0.666656C3.61929 0.666656 2.5 1.78594 2.5 3.16666C2.5 4.54737 3.61929 5.66666 5 5.66666C5.09351 5.66666 5.18582 5.66152 5.27667 5.65152C5.60183 5.61572 5.69053 5.22445 5.51546 4.94811C5.51076 4.94068 5.50608 4.93323 5.50143 4.92576Z" fill="black"/>
<path d="M3.47219 10.2112C3.39651 10.085 3.26293 9.99999 3.11572 9.99999H3C2.17157 9.99999 1.5 9.32842 1.5 8.49999C1.5 7.67156 2.17157 6.99999 3 6.99999H3.11572C3.26293 6.99999 3.39651 6.91501 3.47219 6.78874C3.65693 6.48054 3.45646 5.99999 3.09713 5.99999H3C1.61929 5.99999 0.5 7.11928 0.5 8.49999C0.5 9.8807 1.61929 11 3 11H3.09713C3.45646 11 3.65693 10.5194 3.47219 10.2112Z" fill="black"/>
</svg>
