<svg width="16" height="16" viewBox="0 0 16 16" fill="none" xmlns="http://www.w3.org/2000/svg">
<path d="M10.1261 6.58246C10.3213 6.38719 10.3213 6.07061 10.1261 5.87535C9.93081 5.68009 9.61423 5.68009 9.41897 5.87535L5.64773 9.64658C5.45247 9.84185 5.45247 10.1584 5.64773 10.3537C5.84299 10.549 6.15957 10.549 6.35484 10.3537L10.1261 6.58246Z" fill="black"/>
<path fill-rule="evenodd" clip-rule="evenodd" d="M10.3775 1.83788C9.69527 -0.552732 6.3073 -0.552732 5.62505 1.83788C5.40717 2.60132 4.62283 3.05416 3.85273 2.86113C1.44127 2.25667 -0.252714 5.19074 1.47649 6.97689C2.02872 7.5473 2.02872 8.45298 1.47649 9.02338C-0.252715 10.8095 1.44127 13.7436 3.85273 13.1391C4.62283 12.9461 5.40717 13.399 5.62505 14.1624C6.3073 16.553 9.69527 16.553 10.3775 14.1624C10.5954 13.399 11.3797 12.9461 12.1498 13.1391C14.5613 13.7436 16.2553 10.8095 14.5261 9.02338C13.9738 8.45298 13.9738 7.5473 14.5261 6.97689C16.2553 5.19074 14.5613 2.25667 12.1498 2.86113C11.3797 3.05416 10.5954 2.60132 10.3775 1.83788ZM6.58665 2.11231C6.99281 0.689124 9.00975 0.689124 9.41591 2.11231C9.78189 3.39471 11.0994 4.15537 12.393 3.83112C13.8286 3.47127 14.837 5.21799 13.8076 6.28133C12.88 7.23948 12.88 8.7608 13.8076 9.71895C14.837 10.7823 13.8286 12.529 12.393 12.1692C11.0994 11.8449 9.78189 12.6056 9.41591 13.888C9.00975 15.3112 6.99281 15.3112 6.58665 13.888C6.22067 12.6056 4.90317 11.8449 3.60959 12.1692C2.17399 12.529 1.16552 10.7823 2.19496 9.71895C3.12256 8.7608 3.12256 7.23948 2.19496 6.28133C1.16552 5.21799 2.17399 3.47127 3.60959 3.83112C4.90317 4.15537 6.22067 3.39471 6.58665 2.11231Z" fill="black"/>
<path d="M5.33464 6.00016C5.33464 6.36835 5.63311 6.66683 6.0013 6.66683C6.36949 6.66683 6.66797 6.36835 6.66797 6.00016C6.66797 5.63197 6.36949 5.3335 6.0013 5.3335C5.63311 5.3335 5.33464 5.63197 5.33464 6.00016Z" fill="black"/>
<path d="M9.33464 10.0002C9.33464 10.3684 9.63311 10.6668 10.0013 10.6668C10.3695 10.6668 10.668 10.3684 10.668 10.0002C10.668 9.63197 10.3695 9.3335 10.0013 9.3335C9.63311 9.3335 9.33464 9.63197 9.33464 10.0002Z" fill="black"/>
</svg>
