<svg width="16" height="18" viewBox="0 0 16 18" fill="none" xmlns="http://www.w3.org/2000/svg">
<path d="M13.6617 2.38047C12.9286 1.63952 12.0564 1.0506 11.0951 0.647467C10.1339 0.244334 9.10251 0.0349256 8.06016 0.03125H8C5.88656 0.03125 3.85967 0.870812 2.36524 2.36524C0.870812 3.85967 0.03125 5.88656 0.03125 8V12.375C0.03125 12.8308 0.212332 13.268 0.53466 13.5903C0.856988 13.9127 1.29416 14.0938 1.75 14.0938H3C3.45584 14.0938 3.89301 13.9127 4.21534 13.5903C4.53767 13.268 4.71875 12.8308 4.71875 12.375V9.25C4.71875 8.79416 4.53767 8.35699 4.21534 8.03466C3.89301 7.71233 3.45584 7.53125 3 7.53125H0.984375C1.10329 5.75156 1.89413 4.08357 3.19673 2.8651C4.49934 1.64662 6.21634 0.968746 8 0.96875H8.05313C9.82932 0.976633 11.5363 1.65862 12.8289 2.87684C14.1215 4.09506 14.9034 5.75864 15.0164 7.53125H13C12.5442 7.53125 12.107 7.71233 11.7847 8.03466C11.4623 8.35699 11.2813 8.79416 11.2813 9.25V12.375C11.2813 12.8308 11.4623 13.268 11.7847 13.5903C12.107 13.9127 12.5442 14.0938 13 14.0938H15.0313V14.25C15.0313 14.7887 14.8172 15.3054 14.4363 15.6863C14.0554 16.0672 13.5387 16.2812 13 16.2812H8.625C8.50068 16.2812 8.38145 16.3306 8.29354 16.4185C8.20564 16.5065 8.15625 16.6257 8.15625 16.75C8.15625 16.8743 8.20564 16.9935 8.29354 17.0815C8.38145 17.1694 8.50068 17.2188 8.625 17.2188H13C13.7874 17.2188 14.5425 16.906 15.0992 16.3492C15.656 15.7925 15.9688 15.0374 15.9688 14.25V8C15.9727 6.95762 15.7709 5.9247 15.375 4.96041C14.9792 3.99612 14.3969 3.1194 13.6617 2.38047ZM3 8.46875C3.2072 8.46875 3.40591 8.55106 3.55243 8.69757C3.69894 8.84408 3.78125 9.0428 3.78125 9.25V12.375C3.78125 12.5822 3.69894 12.7809 3.55243 12.9274C3.40591 13.0739 3.2072 13.1562 3 13.1562H1.75C1.5428 13.1562 1.34409 13.0739 1.19757 12.9274C1.05106 12.7809 0.96875 12.5822 0.96875 12.375V8.46875H3ZM12.2188 12.375V9.25C12.2188 9.0428 12.3011 8.84408 12.4476 8.69757C12.5941 8.55106 12.7928 8.46875 13 8.46875H15.0313V13.1562H13C12.7928 13.1562 12.5941 13.0739 12.4476 12.9274C12.3011 12.7809 12.2188 12.5822 12.2188 12.375Z" fill="#0E3228"/>
</svg>
