<svg width="16" height="16" viewBox="0 0 16 16" fill="none" xmlns="http://www.w3.org/2000/svg">
<path d="M8.5 11.8794C8.5 11.6033 8.27615 11.3794 8 11.3794C7.72386 11.3794 7.5 11.6033 7.5 11.8794V13.2128C7.5 13.4889 7.72386 13.7128 8 13.7128C8.27615 13.7128 8.5 13.4889 8.5 13.2128V11.8794Z" fill="black"/>
<path fill-rule="evenodd" clip-rule="evenodd" d="M8.14054 0.835585C8.04688 0.832149 7.95313 0.832149 7.85947 0.835585C7.24122 0.858265 6.68451 1.0685 6.0741 1.41846C5.47926 1.7595 4.79443 2.25706 3.92551 2.88837L3.87828 2.92269C3.00935 3.554 2.32451 4.05156 1.81634 4.51191C1.29488 4.98429 0.922902 5.44879 0.710281 6.02978C0.678072 6.11779 0.649102 6.20695 0.623429 6.29708C0.453948 6.89208 0.481857 7.48652 0.626064 8.17519C0.766596 8.84631 1.02818 9.65138 1.36009 10.6729L1.37813 10.7284C1.71002 11.7499 1.9716 12.5549 2.25239 13.1805C2.54051 13.8224 2.86733 14.3197 3.35418 14.7015C3.42793 14.7593 3.50377 14.8144 3.58156 14.8667C4.07136 15.1958 4.61622 15.354 5.27321 15.4336C5.9721 15.5183 6.84591 15.5183 7.96654 15.5182H8.03347C9.1541 15.5183 10.0279 15.5183 10.7268 15.4336C11.3838 15.354 11.9286 15.1958 12.4184 14.8667C12.4962 14.8144 12.5721 14.7593 12.6458 14.7015C13.1327 14.3197 13.4595 13.8224 13.7476 13.1805C14.0284 12.5549 14.29 11.7499 14.6219 10.7284L14.6399 10.6728C14.9718 9.65141 15.2334 8.84628 15.3739 8.17519C15.5182 7.48651 15.5461 6.89208 15.3766 6.29708C15.3509 6.20695 15.3219 6.11779 15.2897 6.02978C15.0771 5.44879 14.7051 4.98429 14.1837 4.51191C13.6755 4.05156 12.9907 3.554 12.1217 2.92269L12.0745 2.88836C11.2056 2.25705 10.5208 1.7595 9.92591 1.41846C9.3155 1.0685 8.75879 0.858265 8.14054 0.835585ZM7.89613 1.83491C7.96536 1.83237 8.03465 1.83237 8.10388 1.83491C8.50083 1.84947 8.89619 1.98079 9.42853 2.28599C9.97104 2.59703 10.6126 3.06232 11.5103 3.71456C12.4081 4.36679 13.0488 4.83318 13.5123 5.25302C13.9671 5.66499 14.2141 6.00042 14.3506 6.37345C14.3744 6.4385 14.3959 6.5044 14.4148 6.57103C14.5237 6.95305 14.5209 7.36964 14.3952 7.97024C14.267 8.58231 14.0227 9.33626 13.6798 10.3916C13.3369 11.4469 13.0914 12.2005 12.8353 12.771C12.584 13.3308 12.3414 13.6694 12.0288 13.9145C11.9743 13.9573 11.9182 13.998 11.8607 14.0366C11.6637 14.169 11.4426 14.2673 11.1667 14.3391V11.8794C11.1667 10.1305 9.74891 8.71278 8 8.71278C6.2511 8.71278 4.83334 10.1305 4.83334 11.8794V14.3391C4.55736 14.2673 4.33632 14.169 4.13929 14.0366C4.08179 13.998 4.02574 13.9573 3.97123 13.9145C3.65864 13.6694 3.41597 13.3308 3.1647 12.771C2.90862 12.2005 2.66307 11.4469 2.32017 10.3916C1.97726 9.33626 1.733 8.58231 1.60484 7.97024C1.47907 7.36964 1.47636 6.95305 1.58517 6.57103C1.60415 6.5044 1.62556 6.4385 1.64937 6.37345C1.78589 6.00042 2.03295 5.66499 2.48771 5.25302C2.95117 4.83318 3.59194 4.36679 4.48967 3.71456C5.3874 3.06232 6.02897 2.59703 6.57148 2.28599C7.10382 1.98079 7.49918 1.84947 7.89613 1.83491ZM8 9.71278C9.19662 9.71278 10.1667 10.6828 10.1667 11.8794V14.4808C9.60441 14.5177 8.90886 14.5182 8 14.5182C7.09115 14.5182 6.3956 14.5177 5.83334 14.4808V11.8794C5.83334 10.6828 6.80339 9.71278 8 9.71278Z" fill="black"/>
</svg>
