<svg width="18" height="20" viewBox="0 0 18 20" fill="none" xmlns="http://www.w3.org/2000/svg">
<path d="M1.72875 0.177336C1.63496 0.0775129 1.50797 0.0153411 1.3716 0.00248449C1.23524 -0.0103721 1.09887 0.0269698 0.988071 0.107505C0.877278 0.18804 0.799677 0.306235 0.769826 0.439914C0.739976 0.573593 0.759927 0.713571 0.825938 0.833586C0.582199 0.930876 0.373223 1.099 0.225994 1.31625C0.0787658 1.5335 4.60681e-05 1.7899 0 2.05234V7.30234C0 12.1717 2.355 15.1211 4.33125 16.7373C6.46219 18.4811 8.57531 19.0708 8.66438 19.0951C8.76135 19.1216 8.86365 19.1216 8.96062 19.0951C9.08813 19.0605 11.9522 18.2561 14.3672 15.7483L15.8962 17.4273C15.9967 17.5377 16.1369 17.6037 16.286 17.6107C16.4351 17.6178 16.5809 17.5653 16.6912 17.4648C16.8016 17.3644 16.8676 17.2242 16.8746 17.0751C16.8817 16.926 16.8292 16.7802 16.7288 16.6698L1.72875 0.177336ZM8.8125 17.9636C7.42841 17.488 6.14061 16.7685 5.01 15.8392C2.43188 13.7139 1.125 10.8414 1.125 7.30234V2.05234C1.125 2.00261 1.14475 1.95492 1.17992 1.91975C1.21508 1.88459 1.26277 1.86484 1.3125 1.86484H1.74375L13.6088 14.9139C12.2712 16.2924 10.6282 17.3371 8.8125 17.9636ZM17.625 2.05234V7.30234C17.625 9.20452 17.2659 10.9633 16.5581 12.5308C16.5136 12.6294 16.4415 12.7131 16.3505 12.7718C16.2595 12.8305 16.1536 12.8617 16.0453 12.8617C15.9654 12.8619 15.8863 12.8446 15.8137 12.8111C15.6779 12.7497 15.5721 12.6369 15.5193 12.4976C15.4666 12.3582 15.4713 12.2035 15.5325 12.0676C16.1747 10.6464 16.5 9.04327 16.5 7.30234V2.05234C16.5 2.00261 16.4802 1.95492 16.4451 1.91975C16.4099 1.88459 16.3622 1.86484 16.3125 1.86484H6.04875C5.89957 1.86484 5.75649 1.80557 5.651 1.70008C5.54551 1.59459 5.48625 1.45152 5.48625 1.30234C5.48625 1.15315 5.54551 1.01008 5.651 0.904589C5.75649 0.799099 5.89957 0.739836 6.04875 0.739836H16.3125C16.6606 0.739836 16.9944 0.878117 17.2406 1.12426C17.4867 1.3704 17.625 1.70424 17.625 2.05234Z" fill="#FB8800"/>
</svg>
