<svg width="24" height="15" viewBox="0 0 24 15" fill="none" xmlns="http://www.w3.org/2000/svg">
<path d="M10.1593 10.168C11.2038 9.57591 12.0231 8.65476 12.4891 7.54824C12.9552 6.44172 13.042 5.21204 12.7358 4.05105C12.4297 2.89006 11.7479 1.86304 10.7967 1.13022C9.84564 0.397408 8.67872 0 7.47804 0C6.27736 0 5.11045 0.397408 4.15934 1.13022C3.20823 1.86304 2.52642 2.89006 2.22027 4.05105C1.91412 5.21204 2.00085 6.44172 2.46694 7.54824C2.93302 8.65476 3.75224 9.57591 4.79679 10.168C2.86083 10.7852 1.19824 12.0536 0.0914789 13.7577C0.00992486 13.8826 -0.018656 14.0348 0.0120238 14.1808C0.0427035 14.3268 0.130131 14.4547 0.255073 14.5362C0.380015 14.6178 0.532236 14.6464 0.678251 14.6157C0.824266 14.585 0.952112 14.4976 1.03367 14.3727C1.73174 13.2993 2.68683 12.4174 3.81223 11.8069C4.93763 11.1963 6.1977 10.8765 7.47804 10.8765C8.75839 10.8765 10.0185 11.1963 11.1439 11.8069C12.2693 12.4174 13.2243 13.2993 13.9224 14.3727C14.0093 14.484 14.1348 14.5586 14.2742 14.5816C14.4135 14.6046 14.5564 14.5744 14.6744 14.497C14.7925 14.4195 14.8771 14.3005 14.9115 14.1635C14.9458 14.0265 14.9274 13.8817 14.8599 13.7577C13.7543 12.0544 12.0935 10.7861 10.1593 10.168ZM3.16554 5.44015C3.16554 4.58722 3.41847 3.75344 3.89233 3.04426C4.36619 2.33507 5.03971 1.78233 5.82772 1.45592C6.61573 1.12952 7.48283 1.04412 8.31937 1.21052C9.15591 1.37692 9.92432 1.78764 10.5274 2.39076C11.1306 2.99387 11.5413 3.76228 11.7077 4.59883C11.8741 5.43537 11.7887 6.30247 11.4623 7.09048C11.1359 7.87848 10.5831 8.552 9.87394 9.02587C9.16475 9.49973 8.33097 9.75265 7.47804 9.75265C6.33475 9.75117 5.23872 9.29634 4.43029 8.48791C3.62186 7.67948 3.16703 6.58344 3.16554 5.44015ZM22.9468 14.5339C22.8219 14.6154 22.6699 14.644 22.524 14.6134C22.3781 14.5828 22.2503 14.4955 22.1687 14.3708C21.4718 13.2974 20.5175 12.4154 19.3925 11.8053C18.2676 11.1952 17.0078 10.8763 15.728 10.8777C15.5789 10.8777 15.4358 10.8184 15.3303 10.7129C15.2248 10.6074 15.1655 10.4643 15.1655 10.3152C15.1655 10.166 15.2248 10.0229 15.3303 9.91741C15.4358 9.81192 15.5789 9.75265 15.728 9.75265C16.3631 9.75201 16.9902 9.61113 17.5644 9.34006C18.1387 9.069 18.6461 8.67445 19.0502 8.18459C19.4544 7.69474 19.7453 7.12167 19.9023 6.50634C20.0593 5.891 20.0785 5.24859 19.9585 4.62499C19.8384 4.00139 19.5821 3.412 19.2079 2.89892C18.8337 2.38584 18.3508 1.96175 17.7937 1.65693C17.2366 1.35211 16.619 1.17409 15.9851 1.13559C15.3513 1.09709 14.7167 1.19906 14.1268 1.43422C14.0581 1.46235 13.9845 1.4766 13.9103 1.47615C13.836 1.47571 13.7626 1.46057 13.6943 1.43161C13.6259 1.40266 13.5639 1.36045 13.512 1.30744C13.46 1.25443 13.419 1.19165 13.3914 1.12273C13.3638 1.05381 13.3502 0.980111 13.3512 0.905879C13.3522 0.831648 13.3679 0.758354 13.3974 0.690224C13.4269 0.622093 13.4696 0.560474 13.523 0.508919C13.5764 0.457365 13.6395 0.416894 13.7087 0.389841C14.9882 -0.120278 16.4136 -0.125772 17.697 0.374467C18.9805 0.874707 20.0262 1.84339 20.623 3.08485C21.2198 4.32631 21.3232 5.748 20.9123 7.06275C20.5014 8.37749 19.6068 9.48729 18.4093 10.168C20.3453 10.7852 22.0078 12.0536 23.1146 13.7577C23.195 13.8829 23.2225 14.035 23.1911 14.1805C23.1596 14.326 23.0718 14.4531 22.9468 14.5339Z" fill="#6662F4"/>
</svg>
