<svg width="18" height="18" viewBox="0 0 18 18" fill="none" xmlns="http://www.w3.org/2000/svg">
<path d="M16.7217 11.1473L15.1411 4.82414C15.0879 4.611 14.9649 4.42178 14.7918 4.28659C14.6186 4.1514 14.4052 4.07802 14.1855 4.07812H9.42188V2.8125C9.42188 2.55143 9.31816 2.30105 9.13356 2.11644C8.94895 1.93184 8.69857 1.82812 8.4375 1.82812H5.625C5.36393 1.82812 5.11355 1.93184 4.92894 2.11644C4.74434 2.30105 4.64062 2.55143 4.64062 2.8125V4.07812H3.81445C3.59487 4.07798 3.38154 4.15126 3.2084 4.28631C3.03525 4.42136 2.91223 4.61043 2.85891 4.82344L1.27828 11.1473C1.26987 11.1809 1.26562 11.2154 1.26563 11.25V13.5C1.26563 13.7611 1.36934 14.0115 1.55394 14.1961C1.73855 14.3807 1.98893 14.4844 2.25 14.4844H15.75C16.0111 14.4844 16.2615 14.3807 16.4461 14.1961C16.6307 14.0115 16.7344 13.7611 16.7344 13.5V11.25C16.7344 11.2154 16.7301 11.1809 16.7217 11.1473ZM5.48438 2.8125C5.48438 2.7752 5.49919 2.73944 5.52556 2.71306C5.55194 2.68669 5.5877 2.67188 5.625 2.67188H8.4375C8.4748 2.67188 8.51056 2.68669 8.53694 2.71306C8.56331 2.73944 8.57812 2.7752 8.57812 2.8125V4.07812H5.48438V2.8125ZM3.67805 5.02805C3.68572 4.99769 3.7033 4.97076 3.72801 4.95153C3.75272 4.9323 3.78314 4.92186 3.81445 4.92188H14.1855C14.2169 4.92186 14.2473 4.9323 14.272 4.95153C14.2967 4.97076 14.3143 4.99769 14.322 5.02805L15.7725 10.8281H2.2275L3.67805 5.02805ZM15.75 13.6406H2.25C2.2127 13.6406 2.17694 13.6258 2.15056 13.5994C2.12419 13.5731 2.10938 13.5373 2.10938 13.5V11.6719H15.8906V13.5C15.8906 13.5373 15.8758 13.5731 15.8494 13.5994C15.8231 13.6258 15.7873 13.6406 15.75 13.6406ZM4.64062 6.75C4.64062 6.63811 4.68507 6.53081 4.76419 6.45169C4.84331 6.37257 4.95061 6.32812 5.0625 6.32812H6.1875C6.29939 6.32812 6.40669 6.37257 6.48581 6.45169C6.56493 6.53081 6.60938 6.63811 6.60938 6.75C6.60938 6.86189 6.56493 6.96919 6.48581 7.04831C6.40669 7.12743 6.29939 7.17188 6.1875 7.17188H5.0625C4.95061 7.17188 4.84331 7.12743 4.76419 7.04831C4.68507 6.96919 4.64062 6.86189 4.64062 6.75ZM8.01562 6.75C8.01562 6.63811 8.06007 6.53081 8.13919 6.45169C8.21831 6.37257 8.32561 6.32812 8.4375 6.32812H9.5625C9.67439 6.32812 9.78169 6.37257 9.86081 6.45169C9.93993 6.53081 9.98438 6.63811 9.98438 6.75C9.98438 6.86189 9.93993 6.96919 9.86081 7.04831C9.78169 7.12743 9.67439 7.17188 9.5625 7.17188H8.4375C8.32561 7.17188 8.21831 7.12743 8.13919 7.04831C8.06007 6.96919 8.01562 6.86189 8.01562 6.75ZM11.3906 6.75C11.3906 6.63811 11.4351 6.53081 11.5142 6.45169C11.5933 6.37257 11.7006 6.32812 11.8125 6.32812H12.9375C13.0494 6.32812 13.1567 6.37257 13.2358 6.45169C13.3149 6.53081 13.3594 6.63811 13.3594 6.75C13.3594 6.86189 13.3149 6.96919 13.2358 7.04831C13.1567 7.12743 13.0494 7.17188 12.9375 7.17188H11.8125C11.7006 7.17188 11.5933 7.12743 11.5142 7.04831C11.4351 6.96919 11.3906 6.86189 11.3906 6.75ZM4.64062 9C4.64062 8.88811 4.68507 8.78081 4.76419 8.70169C4.84331 8.62257 4.95061 8.57812 5.0625 8.57812H6.1875C6.29939 8.57812 6.40669 8.62257 6.48581 8.70169C6.56493 8.78081 6.60938 8.88811 6.60938 9C6.60938 9.11189 6.56493 9.21919 6.48581 9.29831C6.40669 9.37743 6.29939 9.42188 6.1875 9.42188H5.0625C4.95061 9.42188 4.84331 9.37743 4.76419 9.29831C4.68507 9.21919 4.64062 9.11189 4.64062 9ZM8.01562 9C8.01562 8.88811 8.06007 8.78081 8.13919 8.70169C8.21831 8.62257 8.32561 8.57812 8.4375 8.57812H9.5625C9.67439 8.57812 9.78169 8.62257 9.86081 8.70169C9.93993 8.78081 9.98438 8.88811 9.98438 9C9.98438 9.11189 9.93993 9.21919 9.86081 9.29831C9.78169 9.37743 9.67439 9.42188 9.5625 9.42188H8.4375C8.32561 9.42188 8.21831 9.37743 8.13919 9.29831C8.06007 9.21919 8.01562 9.11189 8.01562 9ZM11.3906 9C11.3906 8.88811 11.4351 8.78081 11.5142 8.70169C11.5933 8.62257 11.7006 8.57812 11.8125 8.57812H12.9375C13.0494 8.57812 13.1567 8.62257 13.2358 8.70169C13.3149 8.78081 13.3594 8.88811 13.3594 9C13.3594 9.11189 13.3149 9.21919 13.2358 9.29831C13.1567 9.37743 13.0494 9.42188 12.9375 9.42188H11.8125C11.7006 9.42188 11.5933 9.37743 11.5142 9.29831C11.4351 9.21919 11.3906 9.11189 11.3906 9Z" fill="white"/>
</svg>
