<svg width="14" height="14" viewBox="0 0 14 14" fill="none" xmlns="http://www.w3.org/2000/svg">
<path d="M7.00011 4.12492C6.43148 4.12492 5.87563 4.29353 5.40284 4.60944C4.93005 4.92535 4.56155 5.37436 4.34395 5.8997C4.12635 6.42504 4.06942 7.0031 4.18035 7.5608C4.29128 8.1185 4.5651 8.63077 4.96717 9.03285C5.36925 9.43492 5.88153 9.70874 6.43922 9.81967C6.99692 9.9306 7.57498 9.87367 8.10032 9.65607C8.62566 9.43847 9.07467 9.06997 9.39058 8.59718C9.70649 8.12439 9.87511 7.56854 9.87511 6.99992C9.87411 6.23772 9.57089 5.50703 9.03194 4.96808C8.49299 4.42913 7.7623 4.12591 7.00011 4.12492ZM7.00011 9.12492C6.57982 9.12492 6.16897 9.00029 5.81952 8.76679C5.47006 8.53329 5.1977 8.20141 5.03686 7.81312C4.87603 7.42482 4.83394 6.99756 4.91594 6.58535C4.99793 6.17314 5.20032 5.7945 5.4975 5.49731C5.79469 5.20013 6.17333 4.99774 6.58554 4.91575C6.99775 4.83375 7.42501 4.87584 7.81331 5.03667C8.2016 5.19751 8.53348 5.46987 8.76698 5.81933C9.00048 6.16878 9.12511 6.57963 9.12511 6.99992C9.12511 7.5635 8.90122 8.104 8.50271 8.50252C8.10419 8.90103 7.56369 9.12492 7.00011 9.12492ZM12.3751 7.17742C12.3789 7.05929 12.3789 6.94054 12.3751 6.82242L13.3332 5.62492C13.3699 5.57908 13.3952 5.52528 13.4073 5.46786C13.4193 5.41043 13.4177 5.35099 13.4026 5.29429C13.2527 4.72934 13.0282 4.18686 12.7351 3.68117C12.706 3.62984 12.6652 3.58611 12.616 3.55353C12.5668 3.52095 12.5106 3.50044 12.452 3.49367L10.9239 3.32429C10.8434 3.23804 10.7601 3.15471 10.6739 3.07429L10.5039 1.54554C10.4971 1.48692 10.4766 1.43073 10.444 1.38154C10.4114 1.33234 10.3677 1.29153 10.3164 1.26242C9.81128 0.970139 9.26969 0.746104 8.70573 0.596165C8.64889 0.581314 8.58936 0.580024 8.53193 0.5924C8.4745 0.604776 8.42078 0.630471 8.37511 0.667415L7.17511 1.62804C7.05698 1.62429 6.93823 1.62429 6.82011 1.62804L5.62511 0.66679C5.57927 0.630168 5.52547 0.604812 5.46805 0.592763C5.41062 0.580714 5.35118 0.582308 5.29448 0.597415C4.72953 0.747322 4.18705 0.971795 3.68136 1.26492C3.63003 1.29403 3.5863 1.33484 3.55372 1.38404C3.52114 1.43323 3.50063 1.48942 3.49386 1.54804L3.32698 3.07617C3.24073 3.157 3.1574 3.24033 3.07698 3.32617L1.54761 3.49992C1.48899 3.50669 1.4328 3.5272 1.3836 3.55978C1.33441 3.59236 1.29359 3.63609 1.26448 3.68742C0.972204 4.19249 0.748169 4.73408 0.59823 5.29804C0.583737 5.35418 0.582459 5.41292 0.594497 5.46963C0.606534 5.52635 0.631559 5.5795 0.667605 5.62492L1.62823 6.82492C1.62448 6.94304 1.62448 7.06179 1.62823 7.17992L0.66698 8.37804C0.630358 8.42388 0.605002 8.47768 0.592953 8.5351C0.580904 8.59252 0.582498 8.65197 0.597605 8.70866C0.747774 9.27254 0.97224 9.81395 1.26511 10.3187C1.29422 10.37 1.33503 10.4137 1.38423 10.4463C1.43342 10.4789 1.48961 10.4994 1.54823 10.5062L3.07636 10.6755C3.15719 10.7618 3.24052 10.8451 3.32636 10.9255L3.50011 12.4524C3.50688 12.511 3.52739 12.5672 3.55997 12.6164C3.59255 12.6656 3.63628 12.7064 3.68761 12.7355C4.19268 13.0278 4.73427 13.2519 5.29823 13.4018C5.35493 13.4169 5.41437 13.4185 5.4718 13.4064C5.52922 13.3944 5.58301 13.369 5.62886 13.3324L6.82261 12.3749C6.94073 12.3787 7.05948 12.3787 7.17761 12.3749L8.37823 13.3362C8.44479 13.3893 8.52745 13.4182 8.61261 13.418C8.64509 13.4179 8.67742 13.4137 8.70886 13.4055C9.27273 13.2554 9.81414 13.0309 10.3189 12.738C10.3702 12.7089 10.4139 12.6681 10.4465 12.6189C10.4791 12.5697 10.4996 12.5135 10.5064 12.4549L10.6757 10.9268C10.762 10.8464 10.8453 10.763 10.9257 10.6768L12.4545 10.5068C12.5131 10.5 12.5693 10.4795 12.6185 10.4469C12.6677 10.4143 12.7085 10.3706 12.7376 10.3193C13.03 9.81427 13.254 9.27266 13.4039 8.70866C13.419 8.65197 13.4206 8.59252 13.4085 8.5351C13.3965 8.47768 13.3711 8.42388 13.3345 8.37804L12.3751 7.17742ZM12.1814 9.77929L10.7039 9.94367C10.6115 9.95431 10.5265 9.99885 10.4651 10.0687C10.3416 10.2078 10.2099 10.3395 10.0707 10.463C10.0009 10.5244 9.95637 10.6095 9.94573 10.7018L9.78136 12.1787C9.43543 12.3631 9.07197 12.5126 8.69636 12.6249L7.53573 11.6962C7.46917 11.6431 7.38651 11.6142 7.30136 11.6143H7.27886C7.09317 11.6249 6.90704 11.6249 6.72136 11.6143C6.62862 11.6086 6.53708 11.6376 6.46448 11.6955L5.30448 12.6249C4.92921 12.512 4.56615 12.3619 4.22073 12.1768L4.05636 10.7005C4.04571 10.6082 4.00117 10.5231 3.93136 10.4618C3.7922 10.3383 3.66051 10.2066 3.53698 10.0674C3.47564 9.9976 3.39055 9.95306 3.29823 9.94242L1.82136 9.77804C1.63707 9.43312 1.48759 9.0707 1.37511 8.69617L2.30386 7.53554C2.36182 7.46294 2.39078 7.3714 2.38511 7.27867C2.37448 7.09298 2.37448 6.90685 2.38511 6.72117C2.39078 6.62843 2.36182 6.53689 2.30386 6.46429L1.37511 5.30429C1.48801 4.92902 1.63813 4.56596 1.82323 4.22054L3.29948 4.05617C3.3918 4.04552 3.47689 4.00098 3.53823 3.93117C3.66176 3.79201 3.79345 3.66032 3.93261 3.53679C4.00242 3.47545 4.04696 3.39036 4.05761 3.29804L4.22198 1.82117C4.5669 1.63688 4.92932 1.4874 5.30386 1.37492L6.46448 2.30367C6.53708 2.36163 6.62862 2.39059 6.72136 2.38492C6.90704 2.37429 7.09317 2.37429 7.27886 2.38492C7.37159 2.39059 7.46313 2.36163 7.53573 2.30367L8.69573 1.37492C9.071 1.48782 9.43406 1.63794 9.77948 1.82304L9.94386 3.30054C9.9545 3.39286 9.99905 3.47795 10.0689 3.53929C10.208 3.66282 10.3397 3.79451 10.4632 3.93367C10.5246 4.00348 10.6097 4.04802 10.702 4.05867L12.1789 4.22304C12.3631 4.56756 12.5125 4.92955 12.6251 5.30367L11.6964 6.46429C11.6384 6.53689 11.6094 6.62843 11.6151 6.72117C11.6257 6.90685 11.6257 7.09298 11.6151 7.27867C11.6094 7.3714 11.6384 7.46294 11.6964 7.53554L12.6251 8.69554C12.5126 9.07077 12.3629 9.43382 12.1782 9.77929H12.1814Z" fill="black"/>
</svg>
