<svg width="23" height="23" viewBox="0 0 23 23" fill="none" xmlns="http://www.w3.org/2000/svg">
<path d="M18.196 3.91497C18.3013 4.02044 18.3605 4.1634 18.3605 4.31247C18.3605 4.46153 18.3013 4.6045 18.196 4.70997L12.946 9.95997C12.8401 10.064 12.6975 10.122 12.5491 10.1213C12.4007 10.1206 12.2586 10.0613 12.1537 9.95628C12.0489 9.85129 11.9897 9.70912 11.9892 9.56072C11.9887 9.41233 12.0468 9.26975 12.151 9.16403L17.401 3.91403C17.5066 3.80882 17.6496 3.74982 17.7987 3.74999C17.9477 3.75017 18.0906 3.80951 18.196 3.91497ZM22.111 4.54028C22.1126 5.13665 21.9959 5.72741 21.7677 6.27839C21.5395 6.82938 21.2044 7.32965 20.7816 7.75028L15.7903 12.7415C15.6689 12.8637 15.5244 12.9606 15.3652 13.0266C15.2061 13.0925 15.0354 13.1263 14.8632 13.1259H13.2985C13.2487 13.1259 13.201 13.1457 13.1659 13.1808C13.1307 13.216 13.111 13.2637 13.111 13.3134V14.8912C13.1104 15.1772 13.017 15.4552 12.8447 15.6834C12.8291 15.7038 12.8122 15.7232 12.7941 15.7415L12.0441 16.4915C11.9222 16.6134 11.7775 16.7101 11.6183 16.7761C11.459 16.842 11.2883 16.876 11.116 16.876C10.9436 16.876 10.7729 16.842 10.6137 16.7761C10.4544 16.7101 10.3097 16.6134 10.1878 16.4915L8.30159 14.6053L0.945969 21.9618C0.839338 22.0612 0.698303 22.1153 0.552577 22.1127C0.406851 22.1102 0.267812 22.0511 0.164752 21.9481C0.0616927 21.845 0.0026588 21.706 8.76352e-05 21.5602C-0.00248353 21.4145 0.0516089 21.2735 0.150969 21.1668L7.50659 13.8103L5.62034 11.924C5.49845 11.8022 5.40176 11.6575 5.33579 11.4982C5.26983 11.339 5.23587 11.1683 5.23587 10.9959C5.23587 10.8235 5.26983 10.6529 5.33579 10.4936C5.40176 10.3344 5.49845 10.1897 5.62034 10.0678L6.37034 9.31778C6.38814 9.29918 6.4076 9.28223 6.42847 9.26716C6.65659 9.0948 6.93474 9.00164 7.22066 9.00184H8.79847C8.8482 9.00184 8.89589 8.98209 8.93105 8.94693C8.96621 8.91176 8.98597 8.86407 8.98597 8.81434V7.24872C8.98555 7.07629 9.0193 6.90549 9.08527 6.74619C9.15125 6.58688 9.24814 6.44223 9.37034 6.32059L14.3607 1.32934C14.9957 0.694508 15.8047 0.262223 16.6854 0.0871441C17.5661 -0.0879346 18.4789 0.00205605 19.3085 0.345738C20.138 0.689419 20.847 1.27136 21.3459 2.01797C21.8447 2.76459 22.111 3.64235 22.111 4.54028ZM20.986 4.54028C20.9858 3.86499 20.7854 3.2049 20.4102 2.64345C20.035 2.08201 19.5017 1.6444 18.8778 1.38594C18.2539 1.12748 17.5675 1.05977 16.9051 1.19136C16.2428 1.32296 15.6343 1.64796 15.1566 2.12528L10.1653 7.11559C10.148 7.13311 10.1342 7.15389 10.1249 7.17674C10.1156 7.19958 10.1108 7.22404 10.111 7.24872V8.81434C10.111 8.9867 10.077 9.15738 10.0111 9.31662C9.9451 9.47585 9.84842 9.62054 9.72655 9.74242C9.60467 9.8643 9.45998 9.96098 9.30074 10.0269C9.1415 10.0929 8.97083 10.1268 8.79847 10.1268H7.22066C7.18794 10.1267 7.15572 10.1348 7.12691 10.1503L6.41347 10.8637C6.39604 10.8811 6.38221 10.9018 6.37277 10.9246C6.36333 10.9473 6.35848 10.9717 6.35848 10.9964C6.35848 11.021 6.36333 11.0454 6.37277 11.0682C6.38221 11.0909 6.39604 11.1116 6.41347 11.129L10.9819 15.6975C11.017 15.7324 11.0646 15.752 11.1141 15.752C11.1636 15.752 11.2112 15.7324 11.2463 15.6975L11.9607 14.984C11.9761 14.9552 11.9842 14.923 11.9841 14.8903V13.3143C11.9841 12.9662 12.1224 12.6324 12.3685 12.3863C12.6147 12.1401 12.9485 12.0018 13.2966 12.0018H14.8613C14.9109 12.0016 14.9585 11.9817 14.9935 11.9465L19.9838 6.95622C20.3024 6.63986 20.555 6.26342 20.727 5.84871C20.8991 5.43399 20.9871 4.98926 20.986 4.54028Z" fill="#6662F4"/>
</svg>
