<svg width="20" height="20" viewBox="0 0 20 20" fill="none" xmlns="http://www.w3.org/2000/svg">
<path d="M10.125 0.5625V3.5625C10.125 3.71168 10.0657 3.85476 9.96025 3.96025C9.85476 4.06574 9.71168 4.125 9.5625 4.125C9.41332 4.125 9.27024 4.06574 9.16475 3.96025C9.05926 3.85476 9 3.71168 9 3.5625V0.5625C9 0.413316 9.05926 0.270242 9.16475 0.164752C9.27024 0.0592632 9.41332 0 9.5625 0C9.71168 0 9.85476 0.0592632 9.96025 0.164752C10.0657 0.270242 10.125 0.413316 10.125 0.5625ZM13.8047 5.88281C13.8786 5.88299 13.9519 5.8686 14.0202 5.84045C14.0886 5.81229 14.1508 5.77094 14.2031 5.71875L16.3237 3.59719C16.4231 3.49056 16.4772 3.34952 16.4746 3.2038C16.4721 3.05807 16.413 2.91903 16.31 2.81597C16.2069 2.71291 16.0679 2.65388 15.9221 2.65131C15.7764 2.64874 15.6354 2.70283 15.5287 2.80219L13.4062 4.92188C13.3274 5.00049 13.2736 5.10076 13.2517 5.20996C13.2299 5.31917 13.241 5.43241 13.2835 5.53533C13.3261 5.63824 13.3983 5.7262 13.4909 5.78806C13.5835 5.84992 13.6924 5.8829 13.8038 5.88281H13.8047ZM18.5625 9H15.5625C15.4133 9 15.2702 9.05926 15.1648 9.16475C15.0593 9.27024 15 9.41332 15 9.5625C15 9.71168 15.0593 9.85476 15.1648 9.96025C15.2702 10.0657 15.4133 10.125 15.5625 10.125H18.5625C18.7117 10.125 18.8548 10.0657 18.9602 9.96025C19.0657 9.85476 19.125 9.71168 19.125 9.5625C19.125 9.41332 19.0657 9.27024 18.9602 9.16475C18.8548 9.05926 18.7117 9 18.5625 9ZM14.2031 13.4062C14.0975 13.3006 13.9541 13.2412 13.8047 13.2412C13.6552 13.2412 13.5119 13.3006 13.4062 13.4062C13.3006 13.5119 13.2412 13.6552 13.2412 13.8047C13.2412 13.9541 13.3006 14.0975 13.4062 14.2031L15.5278 16.3237C15.6344 16.4231 15.7755 16.4772 15.9212 16.4746C16.0669 16.4721 16.206 16.413 16.309 16.31C16.4121 16.2069 16.4711 16.0679 16.4737 15.9221C16.4763 15.7764 16.4222 15.6354 16.3228 15.5287L14.2031 13.4062ZM9.5625 15C9.41332 15 9.27024 15.0593 9.16475 15.1648C9.05926 15.2702 9 15.4133 9 15.5625V18.5625C9 18.7117 9.05926 18.8548 9.16475 18.9602C9.27024 19.0657 9.41332 19.125 9.5625 19.125C9.71168 19.125 9.85476 19.0657 9.96025 18.9602C10.0657 18.8548 10.125 18.7117 10.125 18.5625V15.5625C10.125 15.4133 10.0657 15.2702 9.96025 15.1648C9.85476 15.0593 9.71168 15 9.5625 15ZM4.92188 13.4062L2.80125 15.5287C2.74599 15.5802 2.70166 15.6423 2.67091 15.7113C2.64017 15.7803 2.62364 15.8548 2.62231 15.9304C2.62097 16.0059 2.63487 16.0809 2.66316 16.1509C2.69145 16.221 2.73356 16.2846 2.78697 16.338C2.84039 16.3914 2.90401 16.4336 2.97405 16.4618C3.04409 16.4901 3.11911 16.504 3.19464 16.5027C3.27017 16.5014 3.34465 16.4848 3.41365 16.4541C3.48265 16.4233 3.54475 16.379 3.59625 16.3237L5.71875 14.2031C5.77107 14.1508 5.81258 14.0887 5.8409 14.0203C5.86921 13.952 5.88379 13.8787 5.88379 13.8047C5.88379 13.7307 5.86921 13.6574 5.8409 13.5891C5.81258 13.5207 5.77107 13.4586 5.71875 13.4062C5.66643 13.3539 5.60431 13.3124 5.53595 13.2841C5.46758 13.2558 5.39431 13.2412 5.32031 13.2412C5.24632 13.2412 5.17304 13.2558 5.10468 13.2841C5.03632 13.3124 4.9742 13.3539 4.92188 13.4062ZM4.125 9.5625C4.125 9.41332 4.06574 9.27024 3.96025 9.16475C3.85476 9.05926 3.71168 9 3.5625 9H0.5625C0.413316 9 0.270242 9.05926 0.164752 9.16475C0.0592632 9.27024 0 9.41332 0 9.5625C0 9.71168 0.0592632 9.85476 0.164752 9.96025C0.270242 10.0657 0.413316 10.125 0.5625 10.125H3.5625C3.71168 10.125 3.85476 10.0657 3.96025 9.96025C4.06574 9.85476 4.125 9.71168 4.125 9.5625ZM3.59625 2.80125C3.48962 2.70189 3.34858 2.6478 3.20286 2.65037C3.05713 2.65294 2.91809 2.71197 2.81503 2.81503C2.71197 2.91809 2.65294 3.05713 2.65037 3.20286C2.6478 3.34858 2.70189 3.48962 2.80125 3.59625L4.92188 5.71875C5.02755 5.82442 5.17087 5.88379 5.32031 5.88379C5.46976 5.88379 5.61308 5.82442 5.71875 5.71875C5.82442 5.61308 5.88379 5.46976 5.88379 5.32031C5.88379 5.17087 5.82442 5.02755 5.71875 4.92188L3.59625 2.80125Z" fill="#6D837B"/>
</svg>
